<svg xmlns="http://www.w3.org/2000/svg" xmlns:xlink="http://www.w3.org/1999/xlink" width="720" zoomAndPan="magnify" viewBox="0 0 540 540.000001" height="720" preserveAspectRatio="xMidYMid meet" version="1.0"><defs><g/><clipPath id="f2305712e1"><path d="M 0.5 0 L 539.5 0 L 539.5 539 L 0.5 539 Z M 0.5 0 " clip-rule="nonzero"/></clipPath><clipPath id="fdbabd6b66"><path d="M 35.714844 154.410156 L 235.558594 154.410156 L 235.558594 354.253906 L 35.714844 354.253906 Z M 35.714844 154.410156 " clip-rule="nonzero"/></clipPath></defs><g clip-path="url(#f2305712e1)"><path fill="#ffffff" d="M 0.5 0 L 539.5 0 L 539.5 1631.976562 L 0.5 1631.976562 Z M 0.5 0 " fill-opacity="1" fill-rule="nonzero"/><path fill="#ffffff" d="M 0.5 0 L 539.5 0 L 539.5 539 L 0.5 539 Z M 0.5 0 " fill-opacity="1" fill-rule="nonzero"/><path fill="#ffffff" d="M 0.5 0 L 539.5 0 L 539.5 539 L 0.5 539 Z M 0.5 0 " fill-opacity="1" fill-rule="nonzero"/></g><g fill="#2a6ef2" fill-opacity="1"><g transform="translate(236.186193, 333.744916)"><g><path d="M 30.46875 -22.109375 L 17.46875 -27.8125 C 12.144531 -30.144531 8.375 -32.8125 6.15625 -35.8125 C 3.945312 -38.820312 2.84375 -42.734375 2.84375 -47.546875 C 2.84375 -54.890625 4.835938 -59.9375 8.828125 -62.6875 C 12.816406 -65.4375 19.804688 -66.8125 29.796875 -66.8125 C 39.347656 -66.8125 47.289062 -65.707031 53.625 -63.5 L 52.390625 -50.296875 C 44.796875 -50.421875 37.109375 -50.484375 29.328125 -50.484375 C 26.921875 -50.484375 25.304688 -50.328125 24.484375 -50.015625 C 23.660156 -49.703125 23.25 -49.035156 23.25 -48.015625 C 23.25 -47.128906 23.644531 -46.382812 24.4375 -45.78125 C 25.226562 -45.1875 26.734375 -44.445312 28.953125 -43.5625 L 40.8125 -38.625 C 46.1875 -36.28125 49.976562 -33.585938 52.1875 -30.546875 C 54.40625 -27.515625 55.515625 -23.566406 55.515625 -18.703125 C 55.515625 -11.296875 53.582031 -6.101562 49.71875 -3.125 C 45.863281 -0.15625 38.875 1.328125 28.75 1.328125 C 20.207031 1.328125 11.765625 0.253906 3.421875 -1.890625 L 4.65625 -16.328125 C 17.175781 -16.003906 25.113281 -15.84375 28.46875 -15.84375 C 31.0625 -15.84375 32.785156 -16 33.640625 -16.3125 C 34.492188 -16.632812 34.921875 -17.238281 34.921875 -18.125 C 34.921875 -19.007812 34.617188 -19.738281 34.015625 -20.3125 C 33.421875 -20.882812 32.238281 -21.484375 30.46875 -22.109375 Z M 30.46875 -22.109375 "/></g></g></g><g fill="#2a6ef2" fill-opacity="1"><g transform="translate(297.840736, 333.744916)"><g><path d="M 33.5 -66.8125 C 41.28125 -66.8125 47.304688 -65.847656 51.578125 -63.921875 C 55.847656 -61.992188 58.992188 -58.578125 61.015625 -53.671875 C 63.046875 -48.765625 64.0625 -41.785156 64.0625 -32.734375 C 64.0625 -23.691406 63.046875 -16.71875 61.015625 -11.8125 C 58.992188 -6.90625 55.847656 -3.488281 51.578125 -1.5625 C 47.304688 0.363281 41.28125 1.328125 33.5 1.328125 C 25.78125 1.328125 19.785156 0.363281 15.515625 -1.5625 C 11.242188 -3.488281 8.09375 -6.90625 6.0625 -11.8125 C 4.039062 -16.71875 3.03125 -23.691406 3.03125 -32.734375 C 3.03125 -41.785156 4.039062 -48.765625 6.0625 -53.671875 C 8.09375 -58.578125 11.242188 -61.992188 15.515625 -63.921875 C 19.785156 -65.847656 25.78125 -66.8125 33.5 -66.8125 Z M 40.5625 -47.78125 C 39.394531 -50.28125 37.039062 -51.53125 33.5 -51.53125 C 29.957031 -51.53125 27.597656 -50.28125 26.421875 -47.78125 C 25.253906 -45.28125 24.671875 -40.265625 24.671875 -32.734375 C 24.671875 -25.210938 25.253906 -20.203125 26.421875 -17.703125 C 27.597656 -15.203125 29.957031 -13.953125 33.5 -13.953125 C 37.039062 -13.953125 39.394531 -15.203125 40.5625 -17.703125 C 41.738281 -20.203125 42.328125 -25.210938 42.328125 -32.734375 C 42.328125 -40.265625 41.738281 -45.28125 40.5625 -47.78125 Z M 40.5625 -47.78125 "/></g></g></g><g fill="#2a6ef2" fill-opacity="1"><g transform="translate(368.695649, 333.744916)"><g><path d="M 62.921875 0 L 41.375 0 L 37.109375 -19.453125 C 36.722656 -21.222656 36.132812 -22.410156 35.34375 -23.015625 C 34.5625 -23.617188 33.285156 -23.921875 31.515625 -23.921875 L 25.15625 -23.921875 L 25.15625 0 L 4.9375 0 L 4.9375 -65.484375 C 11.382812 -66.117188 20.65625 -66.4375 32.75 -66.4375 C 42.613281 -66.4375 49.679688 -64.976562 53.953125 -62.0625 C 58.222656 -59.15625 60.359375 -53.96875 60.359375 -46.5 C 60.359375 -37.007812 55.929688 -31.820312 47.078125 -30.9375 L 47.078125 -30.375 C 53.023438 -29.613281 56.597656 -26.195312 57.796875 -20.125 Z M 25.15625 -38.4375 L 32.265625 -38.4375 C 35.242188 -38.4375 37.222656 -38.878906 38.203125 -39.765625 C 39.179688 -40.648438 39.671875 -42.453125 39.671875 -45.171875 C 39.671875 -47.890625 39.179688 -49.691406 38.203125 -50.578125 C 37.222656 -51.460938 35.242188 -51.90625 32.265625 -51.90625 L 25.15625 -51.90625 Z M 25.15625 -38.4375 "/></g></g></g><g fill="#2a6ef2" fill-opacity="1"><g transform="translate(436.610215, 333.744916)"><g><path d="M 58.171875 -50.109375 L 39.859375 -50.109375 L 39.859375 0 L 19.265625 0 L 19.265625 -50.109375 L 0.953125 -50.109375 L 0.953125 -65.484375 L 58.171875 -65.484375 Z M 58.171875 -50.109375 "/></g></g></g><path fill="#2a6ef2" d="M 110.65625 266.820312 L 110.65625 262.65625 C 110.65625 253.460938 103.199219 246.003906 94.003906 246.003906 L 85.675781 246.003906 C 76.480469 246.003906 69.023438 253.460938 69.023438 262.65625 L 69.023438 291.800781 C 69.023438 301 76.480469 308.457031 85.675781 308.457031 L 94.003906 308.457031 C 103.199219 308.457031 110.65625 301 110.65625 291.800781 L 110.65625 287.636719 L 98.175781 287.636719 L 98.175781 291.800781 C 98.175781 294.101562 96.3125 295.964844 94.011719 295.964844 L 85.683594 295.964844 C 83.390625 295.964844 81.519531 294.101562 81.519531 291.800781 L 81.519531 262.65625 C 81.519531 260.355469 83.382812 258.496094 85.683594 258.496094 L 94.011719 258.496094 C 96.304688 258.496094 98.175781 260.355469 98.175781 262.65625 L 98.175781 266.820312 Z M 110.65625 266.820312 " fill-opacity="1" fill-rule="nonzero"/><path fill="#2a6ef2" d="M 143.960938 285.800781 L 132.027344 246.007812 L 118.984375 246.007812 L 137.71875 308.457031 L 150.207031 308.457031 L 168.941406 246.007812 L 155.902344 246.007812 Z M 143.960938 285.800781 " fill-opacity="1" fill-rule="nonzero"/><g clip-path="url(#fdbabd6b66)"><path fill="#2a6ef2" d="M 71.554688 154.410156 L 61.28125 212.699219 L 35.714844 212.699219 L 35.714844 354.253906 L 52.371094 354.253906 L 52.371094 229.351562 L 185.597656 229.351562 L 185.597656 354.253906 L 205.421875 354.253906 L 235.558594 183.332031 Z M 202.25 276.351562 L 202.25 212.699219 L 78.1875 212.699219 L 85.0625 173.703125 L 216.269531 196.839844 Z M 202.25 276.351562 " fill-opacity="1" fill-rule="nonzero"/></g><path fill="#2a6ef2" d="M 106.492188 325.109375 L 168.941406 325.109375 L 168.941406 337.597656 L 106.492188 337.597656 Z M 106.492188 325.109375 " fill-opacity="1" fill-rule="nonzero"/><path fill="#2a6ef2" d="M 69.023438 325.109375 L 94.003906 325.109375 L 94.003906 337.597656 L 69.023438 337.597656 Z M 69.023438 325.109375 " fill-opacity="1" fill-rule="nonzero"/></svg>