<svg xmlns="http://www.w3.org/2000/svg" xmlns:xlink="http://www.w3.org/1999/xlink" width="720" zoomAndPan="magnify" viewBox="0 0 540 449.999984" height="600" preserveAspectRatio="xMidYMid meet" version="1.0"><defs><clipPath id="b01a54e72c"><path d="M 15.703125 0 L 524.011719 0 L 524.011719 450 L 15.703125 450 Z M 15.703125 0 " clip-rule="nonzero"/></clipPath><clipPath id="17bb4ed6c9"><path d="M 203 69.261719 L 204.351562 69.261719 L 204.351562 355 L 203 355 Z M 203 69.261719 " clip-rule="nonzero"/></clipPath><clipPath id="d7dc9abd59"><path d="M 400.539062 354.703125 L 195.882812 354.703125 C 188.917969 354.703125 183.285156 349.0625 183.285156 342.105469 L 183.285156 82.167969 C 183.285156 75.214844 188.917969 69.570312 195.882812 69.570312 L 400.539062 69.570312 C 407.5 69.570312 413.136719 75.214844 413.136719 82.167969 L 413.136719 342.105469 C 413.136719 349.0625 407.5 354.703125 400.539062 354.703125 Z M 400.539062 354.703125 " clip-rule="nonzero"/></clipPath><clipPath id="e463705398"><path d="M 250.050781 69.261719 L 251.839844 69.261719 L 251.839844 355 L 250.050781 355 Z M 250.050781 69.261719 " clip-rule="nonzero"/></clipPath><clipPath id="84563e4356"><path d="M 400.539062 354.703125 L 195.882812 354.703125 C 188.917969 354.703125 183.285156 349.0625 183.285156 342.105469 L 183.285156 82.167969 C 183.285156 75.214844 188.917969 69.570312 195.882812 69.570312 L 400.539062 69.570312 C 407.5 69.570312 413.136719 75.214844 413.136719 82.167969 L 413.136719 342.105469 C 413.136719 349.0625 407.5 354.703125 400.539062 354.703125 Z M 400.539062 354.703125 " clip-rule="nonzero"/></clipPath><clipPath id="d6a9c8ee15"><path d="M 298.148438 69.261719 L 299 69.261719 L 299 355 L 298.148438 355 Z M 298.148438 69.261719 " clip-rule="nonzero"/></clipPath><clipPath id="0c6ae638cd"><path d="M 400.539062 354.703125 L 195.882812 354.703125 C 188.917969 354.703125 183.285156 349.0625 183.285156 342.105469 L 183.285156 82.167969 C 183.285156 75.214844 188.917969 69.570312 195.882812 69.570312 L 400.539062 69.570312 C 407.5 69.570312 413.136719 75.214844 413.136719 82.167969 L 413.136719 342.105469 C 413.136719 349.0625 407.5 354.703125 400.539062 354.703125 Z M 400.539062 354.703125 " clip-rule="nonzero"/></clipPath><clipPath id="3ce6d3dd56"><path d="M 345.300781 69.261719 L 346.8125 69.261719 L 346.8125 355 L 345.300781 355 Z M 345.300781 69.261719 " clip-rule="nonzero"/></clipPath><clipPath id="24d469cca8"><path d="M 400.539062 354.703125 L 195.882812 354.703125 C 188.917969 354.703125 183.285156 349.0625 183.285156 342.105469 L 183.285156 82.167969 C 183.285156 75.214844 188.917969 69.570312 195.882812 69.570312 L 400.539062 69.570312 C 407.5 69.570312 413.136719 75.214844 413.136719 82.167969 L 413.136719 342.105469 C 413.136719 349.0625 407.5 354.703125 400.539062 354.703125 Z M 400.539062 354.703125 " clip-rule="nonzero"/></clipPath><clipPath id="fb79c929a1"><path d="M 183.09375 86 L 413.199219 86 L 413.199219 87 L 183.09375 87 Z M 183.09375 86 " clip-rule="nonzero"/></clipPath><clipPath id="6ea5ea49cb"><path d="M 400.539062 354.703125 L 195.882812 354.703125 C 188.917969 354.703125 183.285156 349.0625 183.285156 342.105469 L 183.285156 82.167969 C 183.285156 75.214844 188.917969 69.570312 195.882812 69.570312 L 400.539062 69.570312 C 407.5 69.570312 413.136719 75.214844 413.136719 82.167969 L 413.136719 342.105469 C 413.136719 349.0625 407.5 354.703125 400.539062 354.703125 Z M 400.539062 354.703125 " clip-rule="nonzero"/></clipPath><clipPath id="066884e666"><path d="M 183.09375 133.378906 L 413.199219 133.378906 L 413.199219 135 L 183.09375 135 Z M 183.09375 133.378906 " clip-rule="nonzero"/></clipPath><clipPath id="199c6e3dd2"><path d="M 400.539062 354.703125 L 195.882812 354.703125 C 188.917969 354.703125 183.285156 349.0625 183.285156 342.105469 L 183.285156 82.167969 C 183.285156 75.214844 188.917969 69.570312 195.882812 69.570312 L 400.539062 69.570312 C 407.5 69.570312 413.136719 75.214844 413.136719 82.167969 L 413.136719 342.105469 C 413.136719 349.0625 407.5 354.703125 400.539062 354.703125 Z M 400.539062 354.703125 " clip-rule="nonzero"/></clipPath><clipPath id="87dd423141"><path d="M 183.09375 181 L 413.199219 181 L 413.199219 182 L 183.09375 182 Z M 183.09375 181 " clip-rule="nonzero"/></clipPath><clipPath id="be773c8dc5"><path d="M 400.539062 354.703125 L 195.882812 354.703125 C 188.917969 354.703125 183.285156 349.0625 183.285156 342.105469 L 183.285156 82.167969 C 183.285156 75.214844 188.917969 69.570312 195.882812 69.570312 L 400.539062 69.570312 C 407.5 69.570312 413.136719 75.214844 413.136719 82.167969 L 413.136719 342.105469 C 413.136719 349.0625 407.5 354.703125 400.539062 354.703125 Z M 400.539062 354.703125 " clip-rule="nonzero"/></clipPath><clipPath id="39e0df1213"><path d="M 183.09375 228.628906 L 413.199219 228.628906 L 413.199219 229.570312 L 183.09375 229.570312 Z M 183.09375 228.628906 " clip-rule="nonzero"/></clipPath><clipPath id="28897c8adf"><path d="M 400.539062 354.703125 L 195.882812 354.703125 C 188.917969 354.703125 183.285156 349.0625 183.285156 342.105469 L 183.285156 82.167969 C 183.285156 75.214844 188.917969 69.570312 195.882812 69.570312 L 400.539062 69.570312 C 407.5 69.570312 413.136719 75.214844 413.136719 82.167969 L 413.136719 342.105469 C 413.136719 349.0625 407.5 354.703125 400.539062 354.703125 Z M 400.539062 354.703125 " clip-rule="nonzero"/></clipPath><clipPath id="f69b283428"><path d="M 183.09375 276 L 413.199219 276 L 413.199219 277 L 183.09375 277 Z M 183.09375 276 " clip-rule="nonzero"/></clipPath><clipPath id="e2be20e6e4"><path d="M 400.539062 354.703125 L 195.882812 354.703125 C 188.917969 354.703125 183.285156 349.0625 183.285156 342.105469 L 183.285156 82.167969 C 183.285156 75.214844 188.917969 69.570312 195.882812 69.570312 L 400.539062 69.570312 C 407.5 69.570312 413.136719 75.214844 413.136719 82.167969 L 413.136719 342.105469 C 413.136719 349.0625 407.5 354.703125 400.539062 354.703125 Z M 400.539062 354.703125 " clip-rule="nonzero"/></clipPath><clipPath id="c9af985756"><path d="M 183.09375 323.183594 L 413.199219 323.183594 L 413.199219 324.820312 L 183.09375 324.820312 Z M 183.09375 323.183594 " clip-rule="nonzero"/></clipPath><clipPath id="8f2b120556"><path d="M 400.539062 354.703125 L 195.882812 354.703125 C 188.917969 354.703125 183.285156 349.0625 183.285156 342.105469 L 183.285156 82.167969 C 183.285156 75.214844 188.917969 69.570312 195.882812 69.570312 L 400.539062 69.570312 C 407.5 69.570312 413.136719 75.214844 413.136719 82.167969 L 413.136719 342.105469 C 413.136719 349.0625 407.5 354.703125 400.539062 354.703125 Z M 400.539062 354.703125 " clip-rule="nonzero"/></clipPath><clipPath id="222733fdae"><path d="M 393.398438 69.261719 L 395 69.261719 L 395 355 L 393.398438 355 Z M 393.398438 69.261719 " clip-rule="nonzero"/></clipPath><clipPath id="57fae2bcc0"><path d="M 400.539062 354.703125 L 195.882812 354.703125 C 188.917969 354.703125 183.285156 349.0625 183.285156 342.105469 L 183.285156 82.167969 C 183.285156 75.214844 188.917969 69.570312 195.882812 69.570312 L 400.539062 69.570312 C 407.5 69.570312 413.136719 75.214844 413.136719 82.167969 L 413.136719 342.105469 C 413.136719 349.0625 407.5 354.703125 400.539062 354.703125 Z M 400.539062 354.703125 " clip-rule="nonzero"/></clipPath><clipPath id="95aea0fae5"><path d="M 280.230469 140.011719 L 316.769531 140.011719 L 316.769531 183.625 L 280.230469 183.625 Z M 280.230469 140.011719 " clip-rule="nonzero"/></clipPath><clipPath id="bce962583e"><path d="M 348 223.191406 C 371.386719 195.847656 368.175781 154.71875 340.832031 131.324219 C 313.488281 107.9375 272.363281 111.144531 248.972656 138.488281 C 225.585938 165.835938 228.792969 206.96875 256.136719 230.355469 C 283.484375 253.746094 324.609375 250.535156 348 223.191406 Z M 348 223.191406 " clip-rule="nonzero"/></clipPath><clipPath id="69e8666700"><path d="M 301.265625 153.183594 L 304.75 153.183594 L 304.75 156.957031 L 301.265625 156.957031 Z M 301.265625 153.183594 " clip-rule="nonzero"/></clipPath><clipPath id="7ba0733659"><path d="M 348 223.191406 C 371.386719 195.847656 368.175781 154.71875 340.832031 131.324219 C 313.488281 107.9375 272.363281 111.144531 248.972656 138.488281 C 225.585938 165.835938 228.792969 206.96875 256.136719 230.355469 C 283.484375 253.746094 324.609375 250.535156 348 223.191406 Z M 348 223.191406 " clip-rule="nonzero"/></clipPath><clipPath id="931b60c873"><path d="M 312.292969 152.242188 L 315.800781 152.242188 L 315.800781 156 L 312.292969 156 Z M 312.292969 152.242188 " clip-rule="nonzero"/></clipPath><clipPath id="358b1a03ce"><path d="M 348 223.191406 C 371.386719 195.847656 368.175781 154.71875 340.832031 131.324219 C 313.488281 107.9375 272.363281 111.144531 248.972656 138.488281 C 225.585938 165.835938 228.792969 206.96875 256.136719 230.355469 C 283.484375 253.746094 324.609375 250.535156 348 223.191406 Z M 348 223.191406 " clip-rule="nonzero"/></clipPath><clipPath id="0e75db9e91"><path d="M 299.089844 153 L 307 153 L 307 156 L 299.089844 156 Z M 299.089844 153 " clip-rule="nonzero"/></clipPath><clipPath id="4364eb2692"><path d="M 348 223.191406 C 371.386719 195.847656 368.175781 154.71875 340.832031 131.324219 C 313.488281 107.9375 272.363281 111.144531 248.972656 138.488281 C 225.585938 165.835938 228.792969 206.96875 256.136719 230.355469 C 283.484375 253.746094 324.609375 250.535156 348 223.191406 Z M 348 223.191406 " clip-rule="nonzero"/></clipPath><clipPath id="a7e1372d53"><path d="M 310.40625 152.242188 L 316.769531 152.242188 L 316.769531 155 L 310.40625 155 Z M 310.40625 152.242188 " clip-rule="nonzero"/></clipPath><clipPath id="f8563eb036"><path d="M 348 223.191406 C 371.386719 195.847656 368.175781 154.71875 340.832031 131.324219 C 313.488281 107.9375 272.363281 111.144531 248.972656 138.488281 C 225.585938 165.835938 228.792969 206.96875 256.136719 230.355469 C 283.484375 253.746094 324.609375 250.535156 348 223.191406 Z M 348 223.191406 " clip-rule="nonzero"/></clipPath><clipPath id="12b78471c9"><path d="M 297.386719 172.046875 L 307.578125 172.046875 L 307.578125 179.589844 L 297.386719 179.589844 Z M 297.386719 172.046875 " clip-rule="nonzero"/></clipPath><clipPath id="652bccb593"><path d="M 348 223.191406 C 371.386719 195.847656 368.175781 154.71875 340.832031 131.324219 C 313.488281 107.9375 272.363281 111.144531 248.972656 138.488281 C 225.585938 165.835938 228.792969 206.96875 256.136719 230.355469 C 283.484375 253.746094 324.609375 250.535156 348 223.191406 Z M 348 223.191406 " clip-rule="nonzero"/></clipPath><clipPath id="4aac2fa8b6"><path d="M 310.40625 147.765625 L 317 147.765625 L 317 151.640625 L 310.40625 151.640625 Z M 310.40625 147.765625 " clip-rule="nonzero"/></clipPath><clipPath id="8a37a7d1ca"><path d="M 348 223.191406 C 371.386719 195.847656 368.175781 154.71875 340.832031 131.324219 C 313.488281 107.9375 272.363281 111.144531 248.972656 138.488281 C 225.585938 165.835938 228.792969 206.96875 256.136719 230.355469 C 283.484375 253.746094 324.609375 250.535156 348 223.191406 Z M 348 223.191406 " clip-rule="nonzero"/></clipPath><clipPath id="58665c292a"><path d="M 298 148 L 306.636719 148 L 306.636719 152.242188 L 298 152.242188 Z M 298 148 " clip-rule="nonzero"/></clipPath><clipPath id="12cdd17f57"><path d="M 348 223.191406 C 371.386719 195.847656 368.175781 154.71875 340.832031 131.324219 C 313.488281 107.9375 272.363281 111.144531 248.972656 138.488281 C 225.585938 165.835938 228.792969 206.96875 256.136719 230.355469 C 283.484375 253.746094 324.609375 250.535156 348 223.191406 Z M 348 223.191406 " clip-rule="nonzero"/></clipPath><clipPath id="cca7fd4b3c"><path d="M 281.171875 126.777344 L 316.769531 126.777344 L 316.769531 151.640625 L 281.171875 151.640625 Z M 281.171875 126.777344 " clip-rule="nonzero"/></clipPath><clipPath id="c3ef377d4c"><path d="M 348 223.191406 C 371.386719 195.847656 368.175781 154.71875 340.832031 131.324219 C 313.488281 107.9375 272.363281 111.144531 248.972656 138.488281 C 225.585938 165.835938 228.792969 206.96875 256.136719 230.355469 C 283.484375 253.746094 324.609375 250.535156 348 223.191406 Z M 348 223.191406 " clip-rule="nonzero"/></clipPath><clipPath id="82fe13addb"><path d="M 308.523438 155.519531 L 311.921875 155.519531 L 311.921875 161.671875 L 308.523438 161.671875 Z M 308.523438 155.519531 " clip-rule="nonzero"/></clipPath><clipPath id="398b830af2"><path d="M 348 223.191406 C 371.386719 195.847656 368.175781 154.71875 340.832031 131.324219 C 313.488281 107.9375 272.363281 111.144531 248.972656 138.488281 C 225.585938 165.835938 228.792969 206.96875 256.136719 230.355469 C 283.484375 253.746094 324.609375 250.535156 348 223.191406 Z M 348 223.191406 " clip-rule="nonzero"/></clipPath><clipPath id="026507cd53"><path d="M 284.003906 152.242188 L 291 152.242188 L 291 155.519531 L 284.003906 155.519531 Z M 284.003906 152.242188 " clip-rule="nonzero"/></clipPath><clipPath id="d818aaae29"><path d="M 348 223.191406 C 371.386719 195.847656 368.175781 154.71875 340.832031 131.324219 C 313.488281 107.9375 272.363281 111.144531 248.972656 138.488281 C 225.585938 165.835938 228.792969 206.96875 256.136719 230.355469 C 283.484375 253.746094 324.609375 250.535156 348 223.191406 Z M 348 223.191406 " clip-rule="nonzero"/></clipPath><clipPath id="2d50437c5b"><path d="M 286.730469 152.613281 L 289 152.613281 L 289 156.488281 L 286.730469 156.488281 Z M 286.730469 152.613281 " clip-rule="nonzero"/></clipPath><clipPath id="1db78b2fa7"><path d="M 348 223.191406 C 371.386719 195.847656 368.175781 154.71875 340.832031 131.324219 C 313.488281 107.9375 272.363281 111.144531 248.972656 138.488281 C 225.585938 165.835938 228.792969 206.96875 256.136719 230.355469 C 283.484375 253.746094 324.609375 250.535156 348 223.191406 Z M 348 223.191406 " clip-rule="nonzero"/></clipPath><clipPath id="ab8f7dc642"><path d="M 283.058594 177.8125 L 308.523438 177.8125 L 308.523438 196 L 283.058594 196 Z M 283.058594 177.8125 " clip-rule="nonzero"/></clipPath><clipPath id="4033c59b49"><path d="M 348 223.191406 C 371.386719 195.847656 368.175781 154.71875 340.832031 131.324219 C 313.488281 107.9375 272.363281 111.144531 248.972656 138.488281 C 225.585938 165.835938 228.792969 206.96875 256.136719 230.355469 C 283.484375 253.746094 324.609375 250.535156 348 223.191406 Z M 348 223.191406 " clip-rule="nonzero"/></clipPath><clipPath id="c1f6ac7f64"><path d="M 283.058594 178.648438 L 308.523438 178.648438 L 308.523438 186 L 283.058594 186 Z M 283.058594 178.648438 " clip-rule="nonzero"/></clipPath><clipPath id="663f74a1f9"><path d="M 348 223.191406 C 371.386719 195.847656 368.175781 154.71875 340.832031 131.324219 C 313.488281 107.9375 272.363281 111.144531 248.972656 138.488281 C 225.585938 165.835938 228.792969 206.96875 256.136719 230.355469 C 283.484375 253.746094 324.609375 250.535156 348 223.191406 Z M 348 223.191406 " clip-rule="nonzero"/></clipPath><clipPath id="2f0ef8251e"><path d="M 233.078125 189.441406 L 263 189.441406 L 263 246 L 233.078125 246 Z M 233.078125 189.441406 " clip-rule="nonzero"/></clipPath><clipPath id="cf13c6b727"><path d="M 348 223.191406 C 371.386719 195.847656 368.175781 154.71875 340.832031 131.324219 C 313.488281 107.9375 272.363281 111.144531 248.972656 138.488281 C 225.585938 165.835938 228.792969 206.96875 256.136719 230.355469 C 283.484375 253.746094 324.609375 250.535156 348 223.191406 Z M 348 223.191406 " clip-rule="nonzero"/></clipPath><clipPath id="1a3ca24a38"><path d="M 332 185.5625 L 361 185.5625 L 361 246 L 332 246 Z M 332 185.5625 " clip-rule="nonzero"/></clipPath><clipPath id="3f08d8bc8a"><path d="M 348 223.191406 C 371.386719 195.847656 368.175781 154.71875 340.832031 131.324219 C 313.488281 107.9375 272.363281 111.144531 248.972656 138.488281 C 225.585938 165.835938 228.792969 206.96875 256.136719 230.355469 C 283.484375 253.746094 324.609375 250.535156 348 223.191406 Z M 348 223.191406 " clip-rule="nonzero"/></clipPath><clipPath id="fcc29608da"><path d="M 254 178 L 335.871094 178 L 335.871094 246 L 254 246 Z M 254 178 " clip-rule="nonzero"/></clipPath><clipPath id="99a9684e25"><path d="M 348 223.191406 C 371.386719 195.847656 368.175781 154.71875 340.832031 131.324219 C 313.488281 107.9375 272.363281 111.144531 248.972656 138.488281 C 225.585938 165.835938 228.792969 206.96875 256.136719 230.355469 C 283.484375 253.746094 324.609375 250.535156 348 223.191406 Z M 348 223.191406 " clip-rule="nonzero"/></clipPath><clipPath id="e5b89b14dd"><path d="M 303 162.300781 L 310.40625 162.300781 L 310.40625 166.386719 L 303 166.386719 Z M 303 162.300781 " clip-rule="nonzero"/></clipPath><clipPath id="e1b106c19c"><path d="M 348 223.191406 C 371.386719 195.847656 368.175781 154.71875 340.832031 131.324219 C 313.488281 107.9375 272.363281 111.144531 248.972656 138.488281 C 225.585938 165.835938 228.792969 206.96875 256.136719 230.355469 C 283.484375 253.746094 324.609375 250.535156 348 223.191406 Z M 348 223.191406 " clip-rule="nonzero"/></clipPath><clipPath id="b162a179cb"><path d="M 452 392 L 466.957031 392 L 466.957031 403.652344 L 452 403.652344 Z M 452 392 " clip-rule="nonzero"/></clipPath><clipPath id="9c449df324"><path d="M 493 240 L 512.628906 240 L 512.628906 258.808594 L 493 258.808594 Z M 493 240 " clip-rule="nonzero"/></clipPath><clipPath id="fed6f9f9a3"><path d="M 124 45.007812 L 276 45.007812 L 276 192.792969 L 124 192.792969 Z M 124 45.007812 " clip-rule="nonzero"/></clipPath><clipPath id="03452f45ac"><path d="M 195.632812 63 L 196.601562 63 L 196.601562 175.816406 L 195.632812 175.816406 Z M 195.632812 63 " clip-rule="nonzero"/></clipPath><clipPath id="d0d5a99fad"><path d="M 199.757812 63.445312 C 167.890625 63.445312 142.023438 88.558594 142.023438 119.488281 C 142.023438 150.425781 167.890625 175.535156 199.757812 175.535156 C 231.621094 175.535156 257.492188 150.425781 257.492188 119.488281 C 257.492188 88.558594 231.621094 63.445312 199.757812 63.445312 Z M 199.757812 63.445312 " clip-rule="nonzero"/></clipPath><clipPath id="c6ffe8fc52"><path d="M 246.28125 79 L 247.964844 79 L 247.964844 156.488281 L 246.28125 156.488281 Z M 246.28125 79 " clip-rule="nonzero"/></clipPath><clipPath id="ea459e18f7"><path d="M 199.757812 63.445312 C 167.890625 63.445312 142.023438 88.558594 142.023438 119.488281 C 142.023438 150.425781 167.890625 175.535156 199.757812 175.535156 C 231.621094 175.535156 257.492188 150.425781 257.492188 119.488281 C 257.492188 88.558594 231.621094 63.445312 199.757812 63.445312 Z M 199.757812 63.445312 " clip-rule="nonzero"/></clipPath><clipPath id="356e95fc09"><path d="M 170 99 L 257.597656 99 L 257.597656 100 L 170 100 Z M 170 99 " clip-rule="nonzero"/></clipPath><clipPath id="df074baeff"><path d="M 199.757812 63.445312 C 167.890625 63.445312 142.023438 88.558594 142.023438 119.488281 C 142.023438 150.425781 167.890625 175.535156 199.757812 175.535156 C 231.621094 175.535156 257.492188 150.425781 257.492188 119.488281 C 257.492188 88.558594 231.621094 63.445312 199.757812 63.445312 Z M 199.757812 63.445312 " clip-rule="nonzero"/></clipPath><clipPath id="22dcd65b64"><path d="M 170 151.296875 L 257.597656 151.296875 L 257.597656 152.613281 L 170 152.613281 Z M 170 151.296875 " clip-rule="nonzero"/></clipPath><clipPath id="f5caebdc7b"><path d="M 199.757812 63.445312 C 167.890625 63.445312 142.023438 88.558594 142.023438 119.488281 C 142.023438 150.425781 167.890625 175.535156 199.757812 175.535156 C 231.621094 175.535156 257.492188 150.425781 257.492188 119.488281 C 257.492188 88.558594 231.621094 63.445312 199.757812 63.445312 Z M 199.757812 63.445312 " clip-rule="nonzero"/></clipPath><clipPath id="b8f5a44283"><path d="M 169.464844 69 L 170.835938 69 L 170.835938 169.085938 L 169.464844 169.085938 Z M 169.464844 69 " clip-rule="nonzero"/></clipPath><clipPath id="2a3f297978"><path d="M 199.757812 63.445312 C 167.890625 63.445312 142.023438 88.558594 142.023438 119.488281 C 142.023438 150.425781 167.890625 175.535156 199.757812 175.535156 C 231.621094 175.535156 257.492188 150.425781 257.492188 119.488281 C 257.492188 88.558594 231.621094 63.445312 199.757812 63.445312 Z M 199.757812 63.445312 " clip-rule="nonzero"/></clipPath></defs><g clip-path="url(#b01a54e72c)"><path fill="#ffffff" d="M 15.703125 -29.769531 L 524.011719 -29.769531 L 524.011719 478.539062 L 15.703125 478.539062 Z M 15.703125 -29.769531 " fill-opacity="1" fill-rule="nonzero"/><path fill="#ffffff" d="M 15.703125 -29.769531 L 524.011719 -29.769531 L 524.011719 478.539062 L 15.703125 478.539062 Z M 15.703125 -29.769531 " fill-opacity="1" fill-rule="nonzero"/></g><path fill="#dbdbdb" d="M 406.011719 367.390625 L 211.753906 367.390625 C 203.191406 367.390625 196.246094 360.449219 196.246094 351.886719 L 196.246094 97.765625 C 196.246094 89.199219 203.191406 82.261719 211.753906 82.261719 L 410.605469 82.261719 C 419.164062 82.261719 426.109375 89.199219 426.109375 97.765625 L 426.109375 347.292969 C 426.109375 358.390625 417.109375 367.390625 406.011719 367.390625 " fill-opacity="1" fill-rule="evenodd"/><path fill="#ffffff" d="M 401.75 354.625 L 195.007812 354.625 C 188.628906 354.625 183.453125 349.449219 183.453125 343.066406 L 183.453125 81.046875 C 183.453125 74.667969 188.628906 69.492188 195.007812 69.492188 L 401.75 69.492188 C 408.140625 69.492188 413.3125 74.667969 413.3125 81.046875 L 413.3125 343.066406 C 413.3125 349.449219 408.140625 354.625 401.75 354.625 " fill-opacity="1" fill-rule="evenodd"/><g clip-path="url(#17bb4ed6c9)"><g clip-path="url(#d7dc9abd59)"><path fill="#e8e8e8" d="M 204.019531 359.546875 L 203.242188 359.546875 L 203.242188 66.070312 L 204.019531 66.070312 L 204.019531 359.546875 " fill-opacity="1" fill-rule="nonzero"/></g></g><g clip-path="url(#e463705398)"><g clip-path="url(#84563e4356)"><path fill="#e8e8e8" d="M 251.480469 359.546875 L 250.707031 359.546875 L 250.707031 66.070312 L 251.480469 66.070312 L 251.480469 359.546875 " fill-opacity="1" fill-rule="nonzero"/></g></g><g clip-path="url(#d6a9c8ee15)"><g clip-path="url(#0c6ae638cd)"><path fill="#e8e8e8" d="M 298.992188 359.546875 L 298.214844 359.546875 L 298.214844 66.070312 L 298.992188 66.070312 L 298.992188 359.546875 " fill-opacity="1" fill-rule="nonzero"/></g></g><g clip-path="url(#3ce6d3dd56)"><g clip-path="url(#24d469cca8)"><path fill="#e8e8e8" d="M 346.449219 359.546875 L 345.675781 359.546875 L 345.675781 66.070312 L 346.449219 66.070312 L 346.449219 359.546875 " fill-opacity="1" fill-rule="nonzero"/></g></g><g clip-path="url(#fb79c929a1)"><g clip-path="url(#6ea5ea49cb)"><path fill="#e8e8e8" d="M 416.75 86.945312 L 178.988281 86.945312 L 178.988281 86.171875 L 416.75 86.171875 L 416.75 86.945312 " fill-opacity="1" fill-rule="nonzero"/></g></g><g clip-path="url(#066884e666)"><g clip-path="url(#199c6e3dd2)"><path fill="#e8e8e8" d="M 416.75 134.464844 L 178.988281 134.464844 L 178.988281 133.6875 L 416.75 133.6875 L 416.75 134.464844 " fill-opacity="1" fill-rule="nonzero"/></g></g><g clip-path="url(#87dd423141)"><g clip-path="url(#be773c8dc5)"><path fill="#e8e8e8" d="M 416.75 181.9375 L 178.988281 181.9375 L 178.988281 181.160156 L 416.75 181.160156 L 416.75 181.9375 " fill-opacity="1" fill-rule="nonzero"/></g></g><g clip-path="url(#39e0df1213)"><g clip-path="url(#28897c8adf)"><path fill="#e8e8e8" d="M 416.75 229.449219 L 178.988281 229.449219 L 178.988281 228.675781 L 416.75 228.675781 L 416.75 229.449219 " fill-opacity="1" fill-rule="nonzero"/></g></g><g clip-path="url(#f69b283428)"><g clip-path="url(#e2be20e6e4)"><path fill="#e8e8e8" d="M 416.75 276.925781 L 178.988281 276.925781 L 178.988281 276.148438 L 416.75 276.148438 L 416.75 276.925781 " fill-opacity="1" fill-rule="nonzero"/></g></g><g clip-path="url(#c9af985756)"><g clip-path="url(#8f2b120556)"><path fill="#e8e8e8" d="M 416.75 324.445312 L 178.988281 324.445312 L 178.988281 323.664062 L 416.75 323.664062 L 416.75 324.445312 " fill-opacity="1" fill-rule="nonzero"/></g></g><g clip-path="url(#222733fdae)"><g clip-path="url(#57fae2bcc0)"><path fill="#e8e8e8" d="M 394.5625 359.546875 L 393.785156 359.546875 L 393.785156 66.070312 L 394.5625 66.070312 L 394.5625 359.546875 " fill-opacity="1" fill-rule="nonzero"/></g></g><path fill="#232928" d="M 254.710938 308.144531 C 252.359375 308.144531 250.441406 310.054688 250.441406 312.410156 L 250.441406 332.878906 C 250.441406 335.234375 252.359375 337.148438 254.710938 337.148438 L 348.777344 337.148438 C 351.136719 337.148438 353.050781 335.234375 353.050781 332.878906 L 353.050781 312.410156 C 353.050781 310.054688 351.136719 308.144531 348.777344 308.144531 Z M 348.777344 337.925781 L 254.710938 337.925781 C 251.929688 337.925781 249.664062 335.660156 249.664062 332.878906 L 249.664062 312.410156 C 249.664062 309.628906 251.929688 307.367188 254.710938 307.367188 L 348.777344 307.367188 C 351.5625 307.367188 353.824219 309.628906 353.824219 312.410156 L 353.824219 332.878906 C 353.824219 335.660156 351.5625 337.925781 348.777344 337.925781 " fill-opacity="1" fill-rule="nonzero"/><path fill="#ffffff" d="M 343.277344 331.632812 L 247.976562 331.632812 C 245.746094 331.632812 243.933594 329.820312 243.933594 327.585938 L 243.933594 305.882812 C 243.933594 303.652344 245.746094 301.84375 247.976562 301.84375 L 343.277344 301.84375 C 345.511719 301.84375 347.320312 303.652344 347.320312 305.882812 L 347.320312 327.585938 C 347.320312 329.820312 345.511719 331.632812 343.277344 331.632812 " fill-opacity="1" fill-rule="evenodd"/><path fill="#232928" d="M 248.777344 302.210938 C 246.421875 302.210938 244.503906 304.125 244.503906 306.484375 L 244.503906 326.949219 C 244.503906 329.304688 246.421875 331.21875 248.777344 331.21875 L 342.84375 331.21875 C 345.199219 331.21875 347.113281 329.304688 347.113281 326.949219 L 347.113281 306.484375 C 347.113281 304.125 345.199219 302.210938 342.84375 302.210938 Z M 342.84375 331.992188 L 248.777344 331.992188 C 245.992188 331.992188 243.730469 329.734375 243.730469 326.949219 L 243.730469 306.484375 C 243.730469 303.699219 245.992188 301.4375 248.777344 301.4375 L 342.84375 301.4375 C 345.625 301.4375 347.890625 303.699219 347.890625 306.484375 L 347.890625 326.949219 C 347.890625 329.734375 345.625 331.992188 342.84375 331.992188 " fill-opacity="1" fill-rule="nonzero"/><path fill="#f9bf75" d="M 260.789062 313.964844 L 265.964844 314.71875 L 262.222656 318.371094 L 263.109375 323.519531 L 258.476562 321.09375 L 253.855469 323.523438 L 254.734375 318.371094 L 250.992188 314.71875 L 256.167969 313.964844 L 258.472656 309.277344 L 260.789062 313.964844 " fill-opacity="1" fill-rule="evenodd"/><path fill="#f9bf75" d="M 279.46875 313.964844 L 284.640625 314.71875 L 280.898438 318.371094 L 281.785156 323.519531 L 277.15625 321.09375 L 272.527344 323.523438 L 273.40625 318.371094 L 269.664062 314.71875 L 274.835938 313.964844 L 277.152344 309.277344 L 279.46875 313.964844 " fill-opacity="1" fill-rule="evenodd"/><path fill="#f9bf75" d="M 298.128906 313.964844 L 303.304688 314.71875 L 299.558594 318.371094 L 300.445312 323.519531 L 295.816406 321.09375 L 291.191406 323.523438 L 292.074219 318.371094 L 288.328125 314.71875 L 293.5 313.964844 L 295.8125 309.277344 L 298.128906 313.964844 " fill-opacity="1" fill-rule="evenodd"/><path fill="#f9bf75" d="M 316.804688 313.964844 L 321.976562 314.71875 L 318.234375 318.371094 L 319.121094 323.519531 L 314.488281 321.09375 L 309.859375 323.523438 L 310.746094 318.371094 L 307.003906 314.71875 L 312.171875 313.964844 L 314.484375 309.277344 L 316.804688 313.964844 " fill-opacity="1" fill-rule="evenodd"/><path fill="#f9bf75" d="M 335.457031 313.964844 L 340.632812 314.71875 L 336.890625 318.371094 L 337.773438 323.519531 L 333.144531 321.09375 L 328.519531 323.523438 L 329.402344 318.371094 L 325.660156 314.71875 L 330.828125 313.964844 L 333.140625 309.277344 L 335.457031 313.964844 " fill-opacity="1" fill-rule="evenodd"/><path fill="#232928" d="M 195.984375 69.964844 C 189.351562 69.964844 183.957031 75.363281 183.957031 81.996094 L 183.957031 342.292969 C 183.957031 348.921875 189.351562 354.324219 195.984375 354.324219 L 401.011719 354.324219 C 407.640625 354.324219 413.039062 348.921875 413.039062 342.292969 L 413.039062 81.996094 C 413.039062 75.363281 407.640625 69.964844 401.011719 69.964844 Z M 401.011719 355.097656 L 195.984375 355.097656 C 188.921875 355.097656 183.179688 349.355469 183.179688 342.292969 L 183.179688 81.996094 C 183.179688 74.9375 188.921875 69.191406 195.984375 69.191406 L 401.011719 69.191406 C 408.070312 69.191406 413.816406 74.9375 413.816406 81.996094 L 413.816406 342.292969 C 413.816406 349.355469 408.070312 355.097656 401.011719 355.097656 " fill-opacity="1" fill-rule="nonzero"/><path fill="#e8e8e8" d="M 363.460938 180.875 C 363.460938 216.769531 334.359375 245.871094 298.464844 245.871094 C 262.570312 245.871094 233.476562 216.769531 233.476562 180.875 C 233.476562 144.980469 262.570312 115.878906 298.464844 115.878906 C 334.359375 115.878906 363.460938 144.980469 363.460938 180.875 " fill-opacity="1" fill-rule="nonzero"/><g clip-path="url(#95aea0fae5)"><g clip-path="url(#bce962583e)"><path fill="#eb9c7d" d="M 316.152344 142.691406 C 314.175781 139.511719 312.648438 140.101562 309.402344 140.910156 C 302.929688 142.511719 300.304688 140.421875 297.039062 141.136719 C 292.554688 142.121094 293.347656 151.769531 292.921875 151.167969 C 289.476562 146.308594 285.367188 147.351562 282.386719 150.140625 C 278.796875 153.5 281.34375 159.648438 286.199219 162.558594 L 286.210938 178.707031 C 292.710938 185.710938 300.300781 183.726562 307.074219 181.53125 C 307.101562 179.484375 307.074219 177.449219 307.023438 175.421875 C 315.28125 175.738281 315.589844 166.796875 316.066406 156.6875 C 316.296875 151.695312 316.210938 147.21875 316.152344 142.691406 " fill-opacity="1" fill-rule="evenodd"/></g></g><g clip-path="url(#69e8666700)"><g clip-path="url(#7ba0733659)"><path fill="#232928" d="M 303.523438 153.253906 C 304.308594 153.359375 304.839844 154.21875 304.710938 155.171875 C 304.582031 156.132812 303.84375 156.820312 303.058594 156.71875 C 302.273438 156.609375 301.742188 155.75 301.871094 154.796875 C 302 153.839844 302.742188 153.148438 303.523438 153.253906 " fill-opacity="1" fill-rule="evenodd"/></g></g><g clip-path="url(#931b60c873)"><g clip-path="url(#358b1a03ce)"><path fill="#232928" d="M 314.359375 152.355469 C 315.128906 152.507812 315.597656 153.390625 315.414062 154.332031 C 315.230469 155.269531 314.457031 155.910156 313.691406 155.757812 C 312.929688 155.609375 312.457031 154.722656 312.644531 153.785156 C 312.828125 152.84375 313.597656 152.207031 314.359375 152.355469 " fill-opacity="1" fill-rule="evenodd"/></g></g><g clip-path="url(#0e75db9e91)"><g clip-path="url(#4364eb2692)"><path fill="#232928" d="M 299.445312 155.5625 C 299.386719 155.5625 299.324219 155.542969 299.277344 155.496094 C 299.1875 155.394531 299.191406 155.246094 299.285156 155.160156 C 301.691406 152.890625 303.941406 152.578125 306.589844 154.152344 C 306.699219 154.214844 306.734375 154.363281 306.667969 154.472656 C 306.601562 154.585938 306.460938 154.621094 306.34375 154.558594 C 303.882812 153.089844 301.867188 153.367188 299.609375 155.5 C 299.5625 155.542969 299.503906 155.5625 299.445312 155.5625 " fill-opacity="1" fill-rule="nonzero"/></g></g><g clip-path="url(#a7e1372d53)"><g clip-path="url(#f8563eb036)"><path fill="#232928" d="M 310.875 154.667969 C 310.820312 154.667969 310.773438 154.652344 310.730469 154.617188 C 310.625 154.535156 310.609375 154.390625 310.6875 154.285156 C 312.203125 152.371094 314.527344 151.730469 316.101562 152.792969 C 316.214844 152.867188 316.238281 153.011719 316.164062 153.121094 C 316.09375 153.230469 315.949219 153.257812 315.839844 153.183594 C 314.472656 152.261719 312.414062 152.855469 311.058594 154.578125 C 311.011719 154.636719 310.941406 154.667969 310.875 154.667969 " fill-opacity="1" fill-rule="nonzero"/></g></g><g clip-path="url(#12b78471c9)"><g clip-path="url(#652bccb593)"><path fill="#232928" d="M 298.0625 172.996094 C 300.632812 174.082031 303.542969 175.390625 307.03125 175.421875 L 307.085938 179.097656 C 302.894531 178.320312 299.1875 174.96875 297.855469 173.457031 C 297.417969 172.949219 297.84375 172.898438 298.0625 172.996094 " fill-opacity="1" fill-rule="evenodd"/></g></g><g clip-path="url(#4aac2fa8b6)"><g clip-path="url(#8a37a7d1ca)"><path fill="#232928" d="M 313.335938 147.933594 C 310.816406 147.378906 309.726562 150.253906 311.898438 150.683594 C 312.953125 150.894531 314.027344 151.089844 315.535156 151.328125 C 317.214844 151.59375 317.578125 149.289062 315.933594 148.734375 C 314.800781 148.351562 314.28125 148.144531 313.335938 147.933594 " fill-opacity="1" fill-rule="evenodd"/></g></g><g clip-path="url(#58665c292a)"><g clip-path="url(#12cdd17f57)"><path fill="#232928" d="M 299.234375 149.3125 C 297.613281 150.492188 297.53125 153.003906 299.992188 151.957031 C 301.664062 151.25 304.015625 151.175781 305.464844 150.808594 C 307.222656 150.367188 307.027344 148.464844 304.246094 148.167969 C 302.320312 147.960938 300.367188 148.492188 299.234375 149.3125 " fill-opacity="1" fill-rule="evenodd"/></g></g><g clip-path="url(#cca7fd4b3c)"><g clip-path="url(#c3ef377d4c)"><path fill="#232928" d="M 282.144531 150.363281 C 279.5625 139.941406 283.378906 133.519531 287.875 130.644531 C 295.910156 125.496094 306.355469 125.902344 312.332031 130.609375 C 318.117188 135.164062 316.289062 143.941406 316.105469 143.414062 C 314.839844 139.71875 312.292969 142.046875 308.425781 142.75 C 303.664062 143.621094 300.121094 141.117188 297.25 141.6875 C 293.625 142.402344 293.535156 149.351562 293.261719 151.296875 C 293.21875 151.644531 293.066406 151.554688 292.757812 151.308594 C 285.910156 145.742188 282.214844 150.628906 282.144531 150.363281 " fill-opacity="1" fill-rule="evenodd"/></g></g><g clip-path="url(#82fe13addb)"><g clip-path="url(#398b830af2)"><path fill="#232928" d="M 308.8125 161.617188 C 308.695312 161.617188 308.59375 161.53125 308.578125 161.414062 C 308.5625 161.285156 308.65625 161.167969 308.785156 161.148438 C 309.664062 161.042969 310.601562 160.867188 310.859375 160.421875 C 310.988281 160.203125 310.960938 159.898438 310.785156 159.492188 C 310.542969 158.925781 310.003906 157.835938 309.207031 156.238281 C 309.148438 156.121094 309.195312 155.980469 309.308594 155.925781 C 309.429688 155.863281 309.566406 155.914062 309.628906 156.03125 C 310.433594 157.632812 310.980469 158.730469 311.21875 159.304688 C 311.453125 159.863281 311.46875 160.300781 311.269531 160.65625 C 310.90625 161.28125 309.890625 161.488281 308.84375 161.617188 C 308.832031 161.617188 308.820312 161.617188 308.8125 161.617188 " fill-opacity="1" fill-rule="nonzero"/></g></g><g clip-path="url(#026507cd53)"><g clip-path="url(#d818aaae29)"><path fill="#232928" d="M 290.464844 155.515625 C 290.359375 155.515625 290.265625 155.441406 290.234375 155.339844 C 289.929688 154.191406 289.285156 153.371094 288.378906 152.972656 C 287.347656 152.523438 286.023438 152.667969 284.664062 153.382812 C 284.550781 153.445312 284.40625 153.398438 284.34375 153.285156 C 284.285156 153.167969 284.332031 153.03125 284.445312 152.96875 C 285.941406 152.183594 287.402344 152.035156 288.566406 152.542969 C 289.59375 152.992188 290.351562 153.945312 290.695312 155.21875 C 290.730469 155.339844 290.652344 155.46875 290.527344 155.503906 C 290.503906 155.511719 290.484375 155.515625 290.464844 155.515625 " fill-opacity="1" fill-rule="nonzero"/></g></g><g clip-path="url(#2d50437c5b)"><g clip-path="url(#1db78b2fa7)"><path fill="#232928" d="M 286.980469 156.078125 C 286.917969 156.078125 286.855469 156.050781 286.804688 156 C 286.722656 155.902344 286.730469 155.753906 286.820312 155.667969 C 287.484375 155.074219 288.132812 153.96875 288.40625 152.988281 C 288.4375 152.863281 288.566406 152.792969 288.695312 152.828125 C 288.820312 152.859375 288.890625 152.988281 288.859375 153.113281 C 288.5625 154.195312 287.871094 155.363281 287.140625 156.011719 C 287.09375 156.058594 287.039062 156.078125 286.980469 156.078125 " fill-opacity="1" fill-rule="nonzero"/></g></g><g clip-path="url(#ab8f7dc642)"><g clip-path="url(#4033c59b49)"><path fill="#ffffff" d="M 283.300781 178.199219 C 286.726562 185.351562 291.324219 192.148438 298.203125 195.730469 C 303.984375 189.921875 306.007812 184.769531 308.105469 179.332031 C 304.746094 183.007812 292.492188 184.21875 286.203125 177.820312 L 283.300781 178.199219 " fill-opacity="1" fill-rule="evenodd"/></g></g><g clip-path="url(#c1f6ac7f64)"><g clip-path="url(#663f74a1f9)"><path fill="#232928" d="M 298.113281 185.648438 C 297.179688 185.648438 296.222656 185.589844 295.253906 185.46875 C 289.761719 184.796875 285.207031 182.363281 283.371094 179.125 C 283.308594 179.015625 283.347656 178.871094 283.460938 178.804688 C 283.574219 178.742188 283.71875 178.785156 283.78125 178.898438 C 285.542969 182.003906 289.960938 184.347656 295.308594 185 C 300.628906 185.65625 305.464844 184.449219 307.929688 181.855469 C 308.019531 181.761719 308.167969 181.761719 308.265625 181.84375 C 308.355469 181.9375 308.359375 182.085938 308.273438 182.183594 C 306.160156 184.402344 302.414062 185.648438 298.113281 185.648438 " fill-opacity="1" fill-rule="nonzero"/></g></g><g clip-path="url(#2f0ef8251e)"><g clip-path="url(#cf13c6b727)"><path fill="#ffffff" d="M 254.128906 189.992188 C 242.320312 195.796875 231.980469 244.773438 232.390625 247.082031 C 232.703125 248.785156 250.601562 251.605469 259.246094 252.648438 C 267.675781 248.351562 258.84375 187.675781 254.128906 189.992188 " fill-opacity="1" fill-rule="evenodd"/></g></g><g clip-path="url(#1a3ca24a38)"><g clip-path="url(#3f08d8bc8a)"><path fill="#ffffff" d="M 334.929688 185.96875 L 332.734375 229.230469 C 331.363281 238.113281 332.332031 247.257812 333.238281 254.894531 C 340.460938 252.820312 361.054688 242.003906 360.550781 240.160156 C 353.828125 215.203125 348.054688 196.726562 334.929688 185.96875 " fill-opacity="1" fill-rule="evenodd"/></g></g><g clip-path="url(#fcc29608da)"><g clip-path="url(#99a9684e25)"><path fill="#7083ef" d="M 333.15625 262.695312 C 334.007812 241.117188 332.769531 233.867188 333.457031 230.445312 C 334.734375 224.085938 336.660156 211.664062 335.023438 186.042969 C 328.5625 179.933594 318.144531 178.621094 307.078125 179.097656 C 305.234375 184.867188 300.589844 194.199219 298.269531 194.425781 C 296.277344 194.625 286.664062 184.894531 283.769531 178.128906 C 273.46875 179.003906 262.339844 181.4375 254.011719 189.996094 C 260.679688 211.710938 264.597656 233.015625 259.226562 252.644531 L 260.21875 262.640625 L 333.15625 262.695312 " fill-opacity="1" fill-rule="evenodd"/></g></g><g clip-path="url(#e5b89b14dd)"><g clip-path="url(#e1b106c19c)"><path fill="#232928" d="M 309.648438 166.273438 C 306.539062 166.273438 304.324219 165.152344 303.046875 162.9375 C 302.980469 162.824219 303.027344 162.683594 303.132812 162.621094 C 303.246094 162.554688 303.386719 162.597656 303.453125 162.707031 C 304.695312 164.867188 306.824219 165.882812 309.957031 165.804688 C 310.085938 165.796875 310.195312 165.90625 310.199219 166.035156 C 310.203125 166.164062 310.097656 166.265625 309.96875 166.269531 C 309.863281 166.273438 309.757812 166.273438 309.648438 166.273438 " fill-opacity="1" fill-rule="nonzero"/></g></g><path fill="#e8e8e8" d="M 317.800781 270.457031 L 207.140625 270.457031 L 207.140625 262.535156 L 317.800781 262.535156 L 317.800781 270.457031 " fill-opacity="1" fill-rule="nonzero"/><path fill="#e8e8e8" d="M 390.457031 270.457031 L 322.792969 270.457031 L 322.792969 262.535156 L 390.457031 262.535156 L 390.457031 270.457031 " fill-opacity="1" fill-rule="nonzero"/><path fill="#e8e8e8" d="M 264.710938 288.648438 L 207.140625 288.648438 L 207.140625 280.726562 L 264.710938 280.726562 L 264.710938 288.648438 " fill-opacity="1" fill-rule="nonzero"/><path fill="#e8e8e8" d="M 300.304688 288.648438 L 269.457031 288.648438 L 269.457031 280.726562 L 300.304688 280.726562 L 300.304688 288.648438 " fill-opacity="1" fill-rule="nonzero"/><path fill="#e8e8e8" d="M 390.457031 288.648438 L 305.183594 288.648438 L 305.183594 280.726562 L 390.457031 280.726562 L 390.457031 288.648438 " fill-opacity="1" fill-rule="nonzero"/><path fill="#fd7f42" d="M 375.566406 131.496094 C 375.566406 144.132812 365.324219 154.375 352.6875 154.375 C 340.054688 154.375 329.8125 144.132812 329.8125 131.496094 C 329.8125 118.859375 340.054688 108.613281 352.6875 108.613281 C 365.324219 108.613281 375.566406 118.859375 375.566406 131.496094 " fill-opacity="1" fill-rule="evenodd"/><path fill="#ffffff" d="M 343.390625 127.632812 C 344.007812 127.007812 345.023438 127.035156 345.605469 127.691406 L 350.496094 133.199219 L 360.164062 121.40625 C 360.734375 120.714844 361.773438 120.664062 362.414062 121.296875 L 364.640625 123.519531 C 365.1875 124.0625 365.242188 124.925781 364.769531 125.535156 L 352.132812 141.78125 C 351.550781 142.53125 350.425781 142.566406 349.796875 141.859375 L 340.980469 131.992188 C 340.476562 131.429688 340.492188 130.566406 341.027344 130.023438 L 343.390625 127.632812 " fill-opacity="1" fill-rule="evenodd"/><path fill="#f9bf75" d="M 455.273438 77.953125 C 455.144531 78.035156 454.953125 78.609375 454.828125 78.996094 C 454.527344 79.933594 454.109375 81.207031 453.078125 82.101562 C 452.339844 82.738281 451.496094 83.101562 450.816406 83.390625 C 449.878906 83.792969 449.390625 84.023438 449.390625 84.515625 C 449.390625 84.679688 450.125 84.9375 450.5625 85.089844 C 451.5 85.414062 452.671875 85.820312 453.433594 86.761719 C 454.09375 87.578125 454.496094 88.457031 454.820312 89.160156 C 455.167969 89.90625 455.441406 90.496094 455.78125 90.515625 C 455.785156 90.515625 455.785156 90.515625 455.789062 90.515625 C 456.101562 90.515625 456.496094 89.378906 456.730469 88.691406 C 457.015625 87.847656 457.320312 86.976562 457.777344 86.402344 C 458.3125 85.742188 459.210938 85.363281 460.007812 85.027344 C 460.71875 84.722656 461.460938 84.417969 461.445312 84.0625 C 461.4375 83.863281 460.699219 83.601562 460.167969 83.414062 C 459.234375 83.082031 458.066406 82.667969 457.257812 81.789062 C 456.566406 81.027344 456.171875 79.996094 455.855469 79.160156 C 455.6875 78.714844 455.433594 78.054688 455.273438 77.953125 Z M 455.796875 91.292969 C 455.773438 91.292969 455.757812 91.292969 455.738281 91.292969 C 454.929688 91.246094 454.550781 90.429688 454.117188 89.484375 C 453.796875 88.789062 453.429688 87.992188 452.828125 87.246094 C 452.207031 86.480469 451.15625 86.113281 450.308594 85.824219 C 449.398438 85.503906 448.613281 85.234375 448.613281 84.515625 C 448.613281 83.492188 449.535156 83.097656 450.511719 82.675781 C 451.175781 82.394531 451.925781 82.070312 452.570312 81.515625 C 453.4375 80.761719 453.800781 79.652344 454.089844 78.757812 C 454.367188 77.910156 454.589844 77.234375 455.199219 77.175781 C 455.898438 77.101562 456.199219 77.886719 456.578125 78.882812 C 456.871094 79.652344 457.242188 80.613281 457.835938 81.265625 C 458.507812 82.003906 459.574219 82.378906 460.425781 82.679688 C 461.367188 83.015625 462.183594 83.300781 462.21875 84.023438 C 462.265625 84.921875 461.265625 85.339844 460.304688 85.746094 C 459.597656 86.042969 458.792969 86.378906 458.382812 86.890625 C 458.007812 87.355469 457.730469 88.160156 457.464844 88.941406 C 457.054688 90.15625 456.660156 91.292969 455.796875 91.292969 " fill-opacity="1" fill-rule="nonzero"/><path fill="#f9bf75" d="M 476.324219 376.367188 C 476.554688 375.632812 476.574219 146.222656 476.117188 138.238281 C 475.519531 127.804688 465.976562 124.546875 456.578125 124.703125 C 446.207031 124.878906 439.664062 131.878906 439.683594 140.488281 C 439.859375 220.011719 441.050781 298.882812 440.980469 377.996094 C 440.980469 378.773438 476.074219 377.160156 476.324219 376.367188 " fill-opacity="1" fill-rule="evenodd"/><path fill="#fd7f42" d="M 476.3125 151.214844 C 476.273438 143.890625 476.21875 139.25 476.160156 138.222656 C 475.566406 127.789062 466.019531 124.53125 456.617188 124.6875 C 446.257812 124.863281 439.710938 131.863281 439.726562 140.476562 C 439.734375 144.433594 439.746094 148.398438 439.761719 152.355469 L 476.3125 151.214844 " fill-opacity="1" fill-rule="evenodd"/><path fill="#232928" d="M 467.628906 377.453125 C 467.628906 377.453125 467.628906 377.453125 467.625 377.453125 C 467.414062 377.453125 467.238281 377.273438 467.238281 377.0625 C 467.480469 310.507812 467.5625 231.964844 466.363281 154.015625 C 466.355469 153.800781 466.527344 153.625 466.742188 153.621094 C 466.742188 153.621094 466.746094 153.621094 466.746094 153.621094 C 466.960938 153.621094 467.132812 153.792969 467.136719 154.007812 C 468.339844 231.960938 468.253906 310.507812 468.015625 377.0625 C 468.015625 377.277344 467.839844 377.453125 467.628906 377.453125 " fill-opacity="1" fill-rule="nonzero"/><path fill="#232928" d="M 456.246094 377.324219 C 456.246094 377.324219 456.246094 377.324219 456.242188 377.324219 C 456.027344 377.324219 455.855469 377.148438 455.855469 376.9375 C 456.078125 315.148438 456.175781 234.007812 454.945312 154.335938 C 454.941406 154.128906 455.113281 153.945312 455.328125 153.945312 C 455.328125 153.945312 455.332031 153.945312 455.332031 153.945312 C 455.546875 153.945312 455.71875 154.117188 455.722656 154.328125 C 456.953125 234.003906 456.855469 315.148438 456.632812 376.9375 C 456.632812 377.152344 456.457031 377.324219 456.246094 377.324219 " fill-opacity="1" fill-rule="nonzero"/><path fill="#232928" d="M 445 378.097656 C 445 378.097656 445 378.097656 444.996094 378.097656 C 444.78125 378.097656 444.609375 377.921875 444.609375 377.710938 L 444.617188 376.089844 C 444.878906 304.214844 445.148438 229.890625 443.996094 155.875 C 443.992188 155.660156 444.171875 155.488281 444.382812 155.484375 C 444.382812 155.484375 444.382812 155.484375 444.386719 155.484375 C 444.601562 155.484375 444.773438 155.652344 444.773438 155.863281 C 445.921875 229.890625 445.648438 304.214844 445.390625 376.089844 L 445.382812 377.710938 C 445.382812 377.925781 445.210938 378.097656 445 378.097656 " fill-opacity="1" fill-rule="nonzero"/><path fill="#ffffff" d="M 465.738281 393.902344 C 469.289062 388.183594 476.722656 376.933594 476.320312 376.183594 C 474.542969 372.890625 469.003906 374.605469 467.351562 376.714844 C 466.964844 377.210938 461.808594 371.902344 455.605469 376.914062 C 454.875 377.503906 450.410156 372.742188 445.304688 377.648438 C 444.664062 378.269531 441.710938 374.867188 440.992188 377.90625 C 440.8125 378.671875 448.558594 389.023438 452.660156 394.496094 C 454.628906 392.84375 462.441406 392.046875 465.738281 393.902344 " fill-opacity="1" fill-rule="evenodd"/><g clip-path="url(#b162a179cb)"><path fill="#232928" d="M 466.164062 393.515625 C 464.28125 396.613281 460.453125 403.460938 459.476562 403.496094 C 458.824219 403.523438 455.292969 398.59375 452.347656 394.183594 C 451.351562 392.683594 467.167969 391.855469 466.164062 393.515625 " fill-opacity="1" fill-rule="evenodd"/></g><path fill="#7083ef" d="M 439.800781 156.109375 C 451.804688 153.183594 465.28125 152.597656 476.390625 155.210938 L 476.339844 148.097656 C 464.863281 145.945312 450.851562 146.257812 439.800781 149.042969 L 439.800781 156.109375 " fill-opacity="1" fill-rule="evenodd"/><g clip-path="url(#9c449df324)"><path fill="#e8e8e8" d="M 512.160156 249.816406 C 512.601562 249.585938 512.539062 249.179688 512.507812 249.0625 C 512.484375 248.953125 512.429688 248.828125 512.308594 248.714844 C 512.257812 248.667969 512.183594 248.617188 512.085938 248.570312 C 511.984375 248.523438 511.804688 248.472656 511.769531 248.457031 C 511.433594 248.363281 508.132812 247.734375 505.863281 247.609375 C 505.539062 247.59375 504.972656 247.582031 504.480469 247.582031 C 504.492188 247.15625 504.496094 246.6875 504.484375 246.414062 C 504.421875 244.34375 503.828125 241.324219 503.722656 241.019531 C 503.703125 240.972656 503.628906 240.738281 503.558594 240.628906 C 503.425781 240.4375 503.25 240.351562 503.121094 240.320312 C 502.996094 240.296875 502.660156 240.242188 502.410156 240.601562 C 502.351562 240.691406 502.167969 241.132812 502.15625 241.160156 C 501.636719 242.917969 501.191406 245.824219 501.15625 247.570312 C 500.664062 247.554688 500.105469 247.550781 499.785156 247.558594 C 497.511719 247.617188 494.191406 248.148438 493.855469 248.242188 C 493.816406 248.253906 493.640625 248.292969 493.535156 248.339844 C 493.433594 248.382812 493.359375 248.433594 493.304688 248.480469 C 493.183594 248.585938 493.128906 248.707031 493.097656 248.816406 C 493.0625 248.933594 492.988281 249.34375 493.421875 249.585938 C 493.511719 249.632812 493.976562 249.789062 494.003906 249.796875 C 495.960938 250.269531 499.191406 250.6875 501.097656 250.710938 C 501.074219 252.460938 501.417969 255.359375 501.875 257.121094 C 501.882812 257.148438 502.050781 257.601562 502.105469 257.691406 C 502.34375 258.058594 502.6875 258.015625 502.808594 257.992188 C 502.9375 257.96875 503.121094 257.886719 503.253906 257.699219 C 503.328125 257.59375 503.417969 257.355469 503.433594 257.3125 C 503.546875 257.011719 504.25 254.007812 504.386719 251.941406 C 504.40625 251.679688 504.414062 251.167969 504.417969 250.710938 C 506.332031 250.742188 509.597656 250.429688 511.570312 250.011719 C 511.601562 250.007812 512.070312 249.867188 512.160156 249.816406 " fill-opacity="1" fill-rule="nonzero"/></g><path fill="#eb9c7d" d="M 152.988281 215.53125 C 154.015625 221.429688 155.75 228.441406 159.203125 230.675781 C 162.785156 233 162.078125 235.382812 158.175781 236.941406 C 164.5625 254.929688 151.960938 255.105469 149.984375 255.113281 L 148.394531 264.71875 C 139.742188 263.285156 130.710938 262.144531 121.996094 259.480469 C 121.953125 257.078125 121.910156 254.679688 121.871094 252.277344 L 128 244.039062 C 121.738281 238.800781 119.921875 232.738281 122.609375 229.113281 C 125.664062 224.984375 131.398438 222.707031 136.738281 226.085938 C 135.339844 219.976562 138.675781 215.675781 140.992188 214.832031 C 143.480469 213.921875 151.867188 209.132812 152.988281 215.53125 " fill-opacity="1" fill-rule="evenodd"/><path fill="#232928" d="M 122.335938 252.832031 C 120.984375 253.589844 122.328125 249.457031 110.722656 237.3125 C 102.6875 228.898438 99.523438 215.058594 109.152344 211.910156 C 106.820312 205.035156 113.074219 199.699219 117.085938 200.710938 C 119.292969 190.226562 134.253906 189.316406 137.03125 197.3125 C 140.222656 194.742188 145.457031 197.078125 145.101562 200.328125 C 158.445312 194.632812 161.664062 209.1875 156.972656 214.554688 C 153.9375 218.03125 150.429688 217.960938 146.757812 215.621094 C 146.316406 218.527344 144.332031 220.402344 140.292969 220.914062 C 140.816406 224.414062 137.871094 230.539062 136.152344 229.347656 C 131.042969 225.804688 127.382812 226.65625 124.871094 229.863281 C 122.789062 232.523438 122.570312 237.320312 127.957031 241.476562 C 130.777344 243.65625 132.546875 247.140625 122.335938 252.832031 " fill-opacity="1" fill-rule="evenodd"/><path fill="#4e5c59" d="M 135.105469 200.589844 C 135.035156 200.589844 134.964844 200.574219 134.898438 200.53125 C 134.714844 200.414062 134.667969 200.171875 134.78125 199.996094 L 136.367188 197.558594 C 136.484375 197.382812 136.726562 197.332031 136.90625 197.445312 C 137.089844 197.5625 137.136719 197.804688 137.019531 197.984375 L 135.433594 200.417969 C 135.359375 200.53125 135.234375 200.589844 135.105469 200.589844 " fill-opacity="1" fill-rule="nonzero"/><path fill="#4e5c59" d="M 118.238281 208.011719 C 118.144531 208.011719 118.054688 207.972656 117.976562 207.910156 C 116.347656 206.445312 115.757812 203.171875 116.757812 201.175781 C 116.855469 200.980469 117.09375 200.910156 117.28125 201 C 117.472656 201.101562 117.550781 201.332031 117.453125 201.523438 C 116.617188 203.1875 117.144531 206.121094 118.496094 207.332031 C 118.65625 207.476562 118.667969 207.722656 118.527344 207.882812 C 118.453125 207.960938 118.34375 208.011719 118.238281 208.011719 " fill-opacity="1" fill-rule="nonzero"/><path fill="#4e5c59" d="M 109.625 212.191406 C 109.492188 212.191406 109.367188 212.125 109.292969 212.007812 C 109.183594 211.824219 109.238281 211.582031 109.421875 211.472656 C 111.53125 210.1875 113.355469 210.21875 114.289062 210.632812 C 114.488281 210.722656 114.574219 210.949219 114.488281 211.148438 C 114.394531 211.34375 114.167969 211.433594 113.972656 211.34375 C 112.84375 210.835938 111.03125 211.394531 109.828125 212.136719 C 109.765625 212.171875 109.695312 212.191406 109.625 212.191406 " fill-opacity="1" fill-rule="nonzero"/><path fill="#232928" d="M 150.410156 227.0625 C 149.433594 227.195312 148.765625 228.285156 148.925781 229.5 C 149.078125 230.710938 149.996094 231.585938 150.976562 231.453125 C 151.949219 231.320312 152.617188 230.230469 152.460938 229.019531 C 152.304688 227.808594 151.386719 226.929688 150.410156 227.0625 " fill-opacity="1" fill-rule="evenodd"/><path fill="#232928" d="M 146.300781 231.265625 C 146.253906 231.265625 146.210938 231.257812 146.167969 231.246094 C 145.960938 231.171875 145.863281 230.945312 145.9375 230.742188 C 147.183594 227.367188 149.503906 225.925781 153.035156 226.34375 C 153.25 226.367188 153.402344 226.558594 153.371094 226.773438 C 153.347656 226.984375 153.15625 227.140625 152.941406 227.109375 C 149.777344 226.738281 147.785156 227.980469 146.664062 231.011719 C 146.609375 231.171875 146.460938 231.265625 146.300781 231.265625 " fill-opacity="1" fill-rule="nonzero"/><path fill="#232928" d="M 154.847656 241.675781 C 151.679688 241.675781 149.417969 240.527344 148.113281 238.265625 C 148.003906 238.082031 148.070312 237.84375 148.253906 237.734375 C 148.4375 237.625 148.679688 237.691406 148.785156 237.878906 C 149.996094 239.984375 152.078125 240.972656 155.152344 240.894531 C 155.375 240.886719 155.546875 241.0625 155.550781 241.277344 C 155.554688 241.488281 155.390625 241.667969 155.175781 241.671875 C 155.066406 241.675781 154.953125 241.675781 154.847656 241.675781 " fill-opacity="1" fill-rule="nonzero"/><path fill="#232928" d="M 135.011719 234.78125 C 134.886719 234.78125 134.757812 234.71875 134.683594 234.601562 C 133.710938 233.023438 132.621094 232.117188 131.441406 231.90625 C 130.242188 231.695312 128.871094 232.183594 127.367188 233.363281 C 127.199219 233.5 126.957031 233.46875 126.820312 233.300781 C 126.6875 233.128906 126.71875 232.886719 126.886719 232.753906 C 128.570312 231.433594 130.148438 230.890625 131.574219 231.144531 C 132.984375 231.394531 134.253906 232.417969 135.34375 234.191406 C 135.457031 234.371094 135.398438 234.613281 135.21875 234.726562 C 135.152344 234.761719 135.085938 234.78125 135.011719 234.78125 " fill-opacity="1" fill-rule="nonzero"/><path fill="#232928" d="M 130.949219 235.902344 C 130.882812 235.902344 130.820312 235.882812 130.757812 235.847656 C 130.570312 235.746094 130.503906 235.511719 130.605469 235.324219 C 131.300781 234.058594 131.566406 232.980469 131.464844 231.824219 C 131.445312 231.609375 131.601562 231.421875 131.816406 231.402344 C 132.03125 231.382812 132.21875 231.542969 132.238281 231.753906 C 132.355469 233.074219 132.058594 234.292969 131.285156 235.699219 C 131.214844 235.828125 131.082031 235.902344 130.949219 235.902344 " fill-opacity="1" fill-rule="nonzero"/><path fill="#232928" d="M 152.289062 219.828125 C 154.820312 219.265625 156.371094 222.8125 153.765625 223.304688 C 151.75 223.691406 149.800781 224.582031 148.144531 225.585938 C 145.496094 227.195312 144.371094 225.289062 145.839844 223.492188 C 147.480469 221.492188 149.738281 220.390625 152.289062 219.828125 " fill-opacity="1" fill-rule="evenodd"/><path fill="#232928" d="M 148.367188 255.453125 C 145.8125 255.453125 143.445312 254.917969 141.875 253.953125 C 141.691406 253.835938 141.632812 253.597656 141.75 253.417969 C 141.855469 253.234375 142.09375 253.179688 142.277344 253.289062 C 143.96875 254.324219 146.679688 254.828125 149.527344 254.640625 C 149.742188 254.628906 149.925781 254.789062 149.941406 255 C 149.960938 255.214844 149.792969 255.398438 149.582031 255.414062 C 149.175781 255.441406 148.769531 255.453125 148.367188 255.453125 " fill-opacity="1" fill-rule="nonzero"/><path fill="#7083ef" d="M 139.730469 161.3125 L 131.492188 147.089844 L 93.722656 167.601562 C 92.417969 164.871094 91.410156 162.402344 86.054688 165.179688 C 68.257812 174.414062 52.128906 183.585938 35.636719 192.582031 C 31.515625 194.828125 30.050781 195.445312 32.445312 200.335938 C 35.664062 206.921875 39.652344 213.65625 43.28125 219.816406 C 61.707031 210.460938 81.136719 200.042969 99.167969 190.414062 C 103.71875 187.976562 104.113281 185.519531 101.910156 181.894531 L 139.730469 161.3125 " fill-opacity="1" fill-rule="evenodd"/><path fill="#eb9c7d" d="M 36.347656 214.3125 C 45.398438 215.855469 56.039062 217.929688 63.972656 222.039062 C 65.996094 217.789062 67.398438 212.847656 71.109375 211.578125 C 79.835938 208.585938 82.277344 204.546875 82.75 199.175781 C 79.46875 200.542969 77.273438 201.980469 73.304688 203.652344 C 70.523438 204.824219 68.398438 202.773438 70 200.105469 C 72.371094 196.144531 73.921875 192.996094 76.492188 189.328125 C 79.277344 185.375 75.898438 182.863281 72.171875 184.648438 C 74.972656 180.335938 71.234375 176.34375 66.832031 179.949219 C 67.070312 174.714844 61.90625 175.828125 58.664062 179.761719 C 56.226562 177.152344 53.015625 177.765625 49.597656 183.40625 C 44.417969 191.953125 40.011719 201.667969 36.347656 214.3125 " fill-opacity="1" fill-rule="evenodd"/><path fill="#eb9c7d" d="M 241.664062 398.304688 C 253.441406 397.695312 265.941406 395.757812 275.871094 393.507812 C 280.289062 392.507812 280.777344 388.160156 276.378906 387.691406 C 272.296875 387.253906 268.964844 387.355469 264.457031 387.582031 C 272.898438 385.886719 281.363281 382.949219 283.074219 382.230469 C 286.953125 380.578125 286.925781 375.691406 283.292969 375.34375 C 287.636719 373.117188 286.441406 367.964844 280.914062 369.296875 C 283.292969 367.03125 281.253906 363.757812 277.15625 364.382812 C 268.957031 365.632812 267.40625 365.820312 259.679688 366.773438 C 259.679688 366.773438 261.09375 365.921875 263.566406 362.871094 C 266.046875 359.804688 263.433594 357.332031 258.453125 359.785156 C 253.476562 362.238281 248.707031 363.902344 242.910156 365.378906 C 241.453125 365.753906 239.015625 366.222656 236.835938 366.324219 C 236.035156 376.589844 239.242188 388.046875 241.664062 398.304688 " fill-opacity="1" fill-rule="evenodd"/><path fill="#232928" d="M 62.660156 197.097656 C 62.597656 197.097656 62.535156 197.085938 62.472656 197.046875 C 62.289062 196.949219 62.21875 196.707031 62.324219 196.523438 C 64.738281 192.1875 68.0625 187.972656 71.679688 184.664062 C 71.835938 184.519531 72.085938 184.53125 72.226562 184.6875 C 72.371094 184.84375 72.359375 185.089844 72.207031 185.234375 C 68.644531 188.492188 65.375 192.632812 63.003906 196.898438 C 62.929688 197.027344 62.796875 197.097656 62.660156 197.097656 " fill-opacity="1" fill-rule="nonzero"/><path fill="#232928" d="M 57.300781 193.277344 C 57.242188 193.277344 57.183594 193.269531 57.132812 193.242188 C 56.941406 193.144531 56.859375 192.910156 56.953125 192.722656 C 59.003906 188.539062 62.4375 183.800781 66.136719 180.03125 C 66.289062 179.882812 66.535156 179.878906 66.6875 180.027344 C 66.84375 180.179688 66.84375 180.425781 66.695312 180.578125 C 63.039062 184.285156 59.664062 188.949219 57.652344 193.0625 C 57.582031 193.199219 57.441406 193.277344 57.300781 193.277344 " fill-opacity="1" fill-rule="nonzero"/><path fill="#232928" d="M 51.65625 191.59375 C 51.605469 191.59375 51.550781 191.578125 51.503906 191.554688 C 51.308594 191.46875 51.214844 191.242188 51.304688 191.046875 C 52.941406 187.28125 55.675781 182.953125 58.269531 180.015625 C 58.410156 179.855469 58.65625 179.839844 58.816406 179.984375 C 58.980469 180.125 58.996094 180.371094 58.851562 180.53125 C 56.304688 183.414062 53.621094 187.660156 52.015625 191.355469 C 51.949219 191.503906 51.804688 191.59375 51.65625 191.59375 " fill-opacity="1" fill-rule="nonzero"/><path fill="#232928" d="M 262.160156 380.859375 C 261.972656 380.859375 261.808594 380.722656 261.78125 380.527344 C 261.746094 380.316406 261.890625 380.117188 262.105469 380.085938 C 268.820312 379.078125 277.566406 376.816406 282.734375 375.097656 C 282.941406 375.03125 283.160156 375.140625 283.226562 375.34375 C 283.296875 375.546875 283.183594 375.765625 282.976562 375.835938 C 277.777344 377.5625 268.980469 379.84375 262.21875 380.855469 C 262.203125 380.859375 262.179688 380.859375 262.160156 380.859375 " fill-opacity="1" fill-rule="nonzero"/><path fill="#232928" d="M 261.242188 374.226562 C 261.050781 374.226562 260.886719 374.085938 260.859375 373.894531 C 260.832031 373.683594 260.976562 373.488281 261.183594 373.453125 C 266.695312 372.65625 275.28125 370.667969 280.328125 369.039062 C 280.53125 368.976562 280.753906 369.085938 280.816406 369.289062 C 280.882812 369.492188 280.773438 369.710938 280.570312 369.777344 C 275.488281 371.425781 266.847656 373.417969 261.300781 374.222656 C 261.28125 374.226562 261.261719 374.226562 261.242188 374.226562 " fill-opacity="1" fill-rule="nonzero"/><path fill="#f9bf75" d="M 62.386719 384.417969 C 62.0625 387.398438 115.15625 401.585938 144.429688 394.652344 C 144.785156 394.570312 155.640625 357.339844 160.972656 338.457031 C 165.867188 359.234375 170.949219 373.394531 184.023438 384.296875 C 203.835938 400.804688 242.957031 398.863281 242.789062 398.21875 C 240.589844 389.867188 237.910156 379.003906 238.550781 366.289062 C 238.589844 365.542969 212.515625 370.335938 200.496094 344.394531 C 195.511719 333.617188 198.636719 308.136719 182.832031 290.390625 C 179.867188 287.0625 167.726562 275.070312 148.089844 267.769531 L 148.648438 263.207031 L 121.929688 255.648438 C 121.347656 261.445312 116.808594 262.429688 110.589844 264.414062 C 100.019531 267.789062 82.699219 269.117188 69.402344 259.691406 C 60.785156 253.574219 59.5625 235.761719 64.304688 221.332031 C 64.71875 220.0625 37.050781 211.9375 36.617188 213.359375 C 31.40625 230.460938 26.871094 245.546875 28.214844 266.789062 C 29.398438 285.652344 52.863281 302.757812 67.753906 305.363281 C 69.019531 331.992188 67.804688 334.753906 62.386719 384.417969 " fill-opacity="1" fill-rule="evenodd"/><path fill="#232928" d="M 234.460938 398.707031 C 234.324219 398.707031 234.183594 398.628906 234.117188 398.484375 C 230.925781 391.960938 229.117188 373.894531 229.71875 366.441406 C 229.734375 366.226562 229.921875 366.066406 230.132812 366.085938 C 230.34375 366.101562 230.503906 366.289062 230.488281 366.503906 C 229.898438 373.882812 231.675781 391.722656 234.816406 398.148438 C 234.90625 398.339844 234.828125 398.570312 234.632812 398.667969 C 234.582031 398.691406 234.523438 398.707031 234.460938 398.707031 " fill-opacity="1" fill-rule="nonzero"/><path fill="#232928" d="M 160.898438 338.3125 C 160.871094 338.3125 160.847656 338.3125 160.824219 338.308594 C 160.609375 338.265625 160.472656 338.0625 160.515625 337.855469 L 165.605469 311.933594 C 165.644531 311.726562 165.847656 311.585938 166.058594 311.625 C 166.273438 311.667969 166.40625 311.871094 166.363281 312.085938 L 161.277344 338 C 161.242188 338.1875 161.082031 338.3125 160.898438 338.3125 " fill-opacity="1" fill-rule="nonzero"/><path fill="#232928" d="M 124.742188 361.171875 C 124.59375 361.171875 124.453125 361.085938 124.390625 360.945312 C 120.023438 351.363281 116.59375 340.84375 114.199219 329.683594 C 111.933594 319.164062 110.511719 307.703125 109.960938 295.601562 C 109.949219 295.390625 110.117188 295.207031 110.324219 295.195312 C 110.539062 295.1875 110.722656 295.355469 110.734375 295.566406 C 111.285156 307.625 112.707031 319.046875 114.957031 329.519531 C 117.339844 340.628906 120.75 351.09375 125.09375 360.625 C 125.1875 360.816406 125.097656 361.046875 124.90625 361.132812 C 124.851562 361.160156 124.796875 361.171875 124.742188 361.171875 " fill-opacity="1" fill-rule="nonzero"/><path fill="#232928" d="M 68.027344 305.273438 C 68.027344 305.273438 68.027344 305.273438 68.023438 305.273438 C 67.8125 305.273438 67.636719 305.101562 67.640625 304.882812 L 67.765625 292.144531 C 67.769531 291.929688 67.945312 291.757812 68.160156 291.757812 C 68.371094 291.761719 68.542969 291.9375 68.539062 292.152344 L 68.414062 304.890625 C 68.410156 305.105469 68.238281 305.273438 68.027344 305.273438 " fill-opacity="1" fill-rule="nonzero"/><path fill="#232928" d="M 62.125 228.566406 C 62.078125 228.566406 62.035156 228.558594 61.992188 228.539062 C 53.957031 225.453125 44.800781 223.125 34.78125 221.613281 C 34.566406 221.585938 34.425781 221.386719 34.457031 221.175781 C 34.488281 220.964844 34.6875 220.816406 34.898438 220.84375 C 44.972656 222.371094 54.183594 224.714844 62.265625 227.816406 C 62.464844 227.890625 62.566406 228.121094 62.488281 228.316406 C 62.429688 228.46875 62.285156 228.566406 62.125 228.566406 " fill-opacity="1" fill-rule="nonzero"/><path fill="#232928" d="M 123.382812 390.234375 C 116.945312 390.234375 110.523438 389.851562 104.15625 389.085938 C 90.894531 387.480469 77.480469 384.164062 64.28125 379.222656 C 64.082031 379.144531 63.980469 378.921875 64.058594 378.722656 C 64.128906 378.519531 64.355469 378.421875 64.554688 378.492188 C 77.695312 383.414062 91.046875 386.714844 104.246094 388.3125 C 117.835938 389.949219 131.679688 389.832031 145.390625 387.953125 C 145.609375 387.929688 145.800781 388.074219 145.832031 388.289062 C 145.859375 388.5 145.710938 388.699219 145.5 388.726562 C 138.144531 389.730469 130.753906 390.234375 123.382812 390.234375 " fill-opacity="1" fill-rule="nonzero"/><g clip-path="url(#fed6f9f9a3)"><path fill="#7083ef" d="M 199.761719 45.164062 C 157.945312 45.164062 124 78.140625 124 118.765625 C 124 159.386719 157.945312 192.371094 199.761719 192.371094 C 241.574219 192.371094 275.527344 159.386719 275.527344 118.765625 C 275.527344 78.140625 241.574219 45.164062 199.761719 45.164062 " fill-opacity="1" fill-rule="evenodd"/></g><path fill="#ffffff" d="M 199.753906 63.445312 C 167.886719 63.445312 142.015625 88.558594 142.015625 119.488281 C 142.015625 150.421875 167.886719 175.535156 199.753906 175.535156 C 231.613281 175.535156 257.488281 150.421875 257.488281 119.488281 C 257.488281 88.558594 231.613281 63.445312 199.753906 63.445312 " fill-opacity="1" fill-rule="evenodd"/><path fill="#232928" d="M 101.582031 181.871094 C 101.445312 181.871094 101.316406 181.800781 101.246094 181.671875 L 93.59375 168.054688 C 93.492188 167.867188 93.558594 167.632812 93.746094 167.527344 C 93.933594 167.425781 94.164062 167.488281 94.273438 167.679688 L 101.917969 181.292969 C 102.027344 181.480469 101.960938 181.714844 101.773438 181.824219 C 101.710938 181.855469 101.648438 181.871094 101.582031 181.871094 " fill-opacity="1" fill-rule="nonzero"/><path fill="#232928" d="M 138.890625 162.277344 C 138.773438 162.277344 138.65625 162.222656 138.582031 162.121094 C 135.410156 157.898438 132.335938 152.667969 130.144531 147.765625 C 130.054688 147.570312 130.148438 147.34375 130.339844 147.253906 C 130.539062 147.167969 130.765625 147.253906 130.855469 147.449219 C 133.023438 152.300781 136.0625 157.480469 139.199219 161.660156 C 139.328125 161.832031 139.296875 162.074219 139.121094 162.203125 C 139.054688 162.253906 138.972656 162.277344 138.890625 162.277344 " fill-opacity="1" fill-rule="nonzero"/><g clip-path="url(#03452f45ac)"><g clip-path="url(#d0d5a99fad)"><path fill="#e8e8e8" d="M 196.433594 177.183594 L 195.65625 177.183594 L 195.65625 60.210938 L 196.433594 60.210938 L 196.433594 177.183594 " fill-opacity="1" fill-rule="nonzero"/></g></g><g clip-path="url(#c6ffe8fc52)"><g clip-path="url(#ea459e18f7)"><path fill="#e8e8e8" d="M 247.285156 156.230469 L 246.507812 156.230469 L 246.507812 79.410156 L 247.285156 79.410156 L 247.285156 156.230469 " fill-opacity="1" fill-rule="nonzero"/></g></g><g clip-path="url(#356e95fc09)"><g clip-path="url(#df074baeff)"><path fill="#e8e8e8" d="M 258.816406 99.828125 L 170.21875 99.828125 L 170.21875 99.050781 L 258.816406 99.050781 L 258.816406 99.828125 " fill-opacity="1" fill-rule="nonzero"/></g></g><g clip-path="url(#22dcd65b64)"><g clip-path="url(#f5caebdc7b)"><path fill="#e8e8e8" d="M 258.816406 152.339844 L 170.21875 152.339844 L 170.21875 151.5625 L 258.816406 151.5625 L 258.816406 152.339844 " fill-opacity="1" fill-rule="nonzero"/></g></g><g clip-path="url(#b8f5a44283)"><g clip-path="url(#2a3f297978)"><path fill="#232928" d="M 170.265625 169.070312 C 170.046875 169.070312 169.875 168.898438 169.875 168.683594 L 169.875 69.390625 C 169.875 69.171875 170.046875 69.003906 170.265625 69.003906 C 170.480469 69.003906 170.652344 69.171875 170.652344 69.390625 L 170.652344 168.683594 C 170.652344 168.898438 170.480469 169.070312 170.265625 169.070312 " fill-opacity="1" fill-rule="nonzero"/></g></g><path fill="#f9bf75" d="M 97.15625 133.265625 C 98.929688 135.214844 102.386719 135.199219 102.449219 136.382812 C 102.515625 137.808594 99.082031 138.019531 97.816406 139.59375 C 96.59375 141.113281 96.25 144.933594 94.949219 144.859375 C 93.679688 144.78125 93.476562 142.238281 91.695312 140.039062 C 90.082031 138.035156 86.597656 138.121094 86.597656 136.960938 C 86.597656 135.316406 89.308594 135.359375 91.320312 133.625 C 93.433594 131.789062 93.300781 128.476562 94.304688 128.371094 C 95.289062 128.273438 95.53125 131.496094 97.15625 133.265625 " fill-opacity="1" fill-rule="evenodd"/><path fill="#dbdbdb" d="M 85.644531 116.863281 C 86.160156 116.589844 86.085938 116.117188 86.054688 115.976562 C 86.023438 115.847656 85.957031 115.707031 85.820312 115.578125 C 85.761719 115.515625 85.671875 115.453125 85.5625 115.398438 C 85.441406 115.347656 85.230469 115.292969 85.1875 115.277344 C 84.800781 115.160156 80.945312 114.421875 78.289062 114.28125 C 77.914062 114.261719 77.253906 114.25 76.675781 114.25 C 76.6875 113.75 76.695312 113.203125 76.683594 112.890625 C 76.609375 110.46875 75.910156 106.941406 75.789062 106.585938 C 75.769531 106.527344 75.679688 106.253906 75.597656 106.128906 C 75.445312 105.898438 75.242188 105.800781 75.082031 105.765625 C 74.941406 105.734375 74.546875 105.675781 74.257812 106.089844 C 74.191406 106.195312 73.972656 106.714844 73.960938 106.746094 C 73.359375 108.796875 72.832031 112.199219 72.792969 114.234375 C 72.214844 114.222656 71.5625 114.214844 71.195312 114.222656 C 68.53125 114.289062 64.652344 114.914062 64.261719 115.019531 C 64.21875 115.03125 64.007812 115.078125 63.882812 115.128906 C 63.769531 115.183594 63.679688 115.246094 63.621094 115.296875 C 63.480469 115.421875 63.414062 115.566406 63.378906 115.691406 C 63.339844 115.832031 63.25 116.300781 63.753906 116.589844 C 63.859375 116.648438 64.402344 116.828125 64.4375 116.835938 C 66.722656 117.386719 70.5 117.875 72.726562 117.90625 C 72.699219 119.949219 73.101562 123.332031 73.628906 125.386719 C 73.640625 125.425781 73.839844 125.957031 73.898438 126.058594 C 74.175781 126.484375 74.578125 126.4375 74.71875 126.410156 C 74.878906 126.382812 75.082031 126.289062 75.246094 126.0625 C 75.328125 125.945312 75.433594 125.671875 75.449219 125.613281 C 75.585938 125.269531 76.410156 121.757812 76.566406 119.339844 C 76.589844 119.03125 76.601562 118.4375 76.605469 117.902344 C 78.839844 117.9375 82.652344 117.574219 84.957031 117.089844 C 84.996094 117.082031 85.539062 116.917969 85.644531 116.863281 " fill-opacity="1" fill-rule="nonzero"/></svg>