<svg xmlns="http://www.w3.org/2000/svg" xmlns:xlink="http://www.w3.org/1999/xlink" width="720" zoomAndPan="magnify" viewBox="0 0 540 540.000001" height="720" preserveAspectRatio="xMidYMid meet" version="1.0"><defs><clipPath id="5dd521fc23"><path d="M 65 56 L 479.035156 56 L 479.035156 512 L 65 512 Z M 65 56 " clip-rule="nonzero"/></clipPath></defs><g clip-path="url(#5dd521fc23)"><path fill="#ffffff" d="M 127.484375 56.261719 C 126.804688 56.261719 126.132812 56.328125 125.46875 56.460938 C 124.800781 56.59375 124.15625 56.789062 123.527344 57.046875 C 122.902344 57.308594 122.304688 57.628906 121.742188 58.003906 C 121.175781 58.382812 120.652344 58.808594 120.175781 59.289062 C 119.695312 59.769531 119.265625 60.292969 118.886719 60.855469 C 118.511719 61.421875 118.191406 62.015625 117.933594 62.644531 C 117.671875 63.269531 117.476562 63.917969 117.34375 64.582031 C 117.210938 65.25 117.144531 65.921875 117.144531 66.601562 L 117.144531 211.351562 C 117.144531 212.027344 117.210938 212.699219 117.34375 213.367188 C 117.476562 214.03125 117.671875 214.679688 117.933594 215.304688 C 118.191406 215.933594 118.511719 216.53125 118.886719 217.09375 C 119.265625 217.660156 119.695312 218.179688 120.175781 218.660156 C 120.652344 219.140625 121.175781 219.570312 121.742188 219.945312 C 122.304688 220.324219 122.902344 220.640625 123.527344 220.902344 C 124.15625 221.160156 124.800781 221.359375 125.46875 221.492188 C 126.132812 221.621094 126.804688 221.6875 127.484375 221.6875 L 168.84375 221.6875 L 168.84375 372.132812 L 128.152344 331.441406 C 115.082031 318.371094 93.59375 315.703125 78.675781 327.910156 C 62.058594 341.496094 61.03125 366.667969 75.949219 381.582031 L 184.738281 490.042969 C 198.296875 503.578125 216.695312 511.1875 235.851562 511.1875 L 323.941406 511.1875 C 363.792969 511.1875 396.320312 478.664062 396.320312 438.8125 L 396.320312 342.066406 C 396.320312 323.582031 383.007812 306.5 363.824219 304.585938 C 355.222656 303.722656 347.480469 306.574219 340.824219 310.945312 C 336.675781 297.277344 327.285156 285.433594 312.125 283.90625 C 302.226562 282.914062 293.152344 286.34375 286.035156 292.085938 C 280.429688 282.527344 272.3125 274.761719 260.429688 273.566406 C 253.421875 272.867188 247.0625 274.777344 241.222656 277.667969 L 241.222656 221.6875 L 272.242188 221.6875 C 272.921875 221.6875 273.59375 221.621094 274.257812 221.492188 C 274.925781 221.359375 275.570312 221.160156 276.199219 220.902344 C 276.824219 220.640625 277.421875 220.324219 277.984375 219.945312 C 278.550781 219.570312 279.074219 219.140625 279.554688 218.660156 C 280.03125 218.179688 280.460938 217.660156 280.839844 217.09375 C 281.214844 216.53125 281.535156 215.933594 281.792969 215.304688 C 282.054688 214.679688 282.25 214.03125 282.382812 213.367188 C 282.515625 212.699219 282.582031 212.027344 282.582031 211.351562 L 282.582031 66.601562 C 282.582031 65.921875 282.515625 65.25 282.382812 64.582031 C 282.25 63.917969 282.054688 63.269531 281.792969 62.644531 C 281.535156 62.015625 281.214844 61.421875 280.839844 60.855469 C 280.460938 60.292969 280.03125 59.769531 279.554688 59.289062 C 279.074219 58.808594 278.550781 58.382812 277.984375 58.003906 C 277.421875 57.628906 276.824219 57.308594 276.199219 57.046875 C 275.570312 56.789062 274.925781 56.59375 274.257812 56.460938 C 273.59375 56.328125 272.921875 56.261719 272.242188 56.261719 Z M 323.941406 56.261719 C 323.261719 56.261719 322.589844 56.328125 321.921875 56.460938 C 321.257812 56.59375 320.609375 56.789062 319.984375 57.046875 C 319.355469 57.308594 318.761719 57.628906 318.195312 58.003906 C 317.632812 58.382812 317.109375 58.808594 316.628906 59.289062 C 316.148438 59.769531 315.722656 60.292969 315.34375 60.855469 C 314.964844 61.421875 314.648438 62.015625 314.386719 62.644531 C 314.128906 63.269531 313.933594 63.917969 313.800781 64.582031 C 313.667969 65.25 313.601562 65.921875 313.601562 66.601562 L 313.601562 211.351562 C 313.601562 212.027344 313.667969 212.699219 313.800781 213.367188 C 313.933594 214.03125 314.128906 214.679688 314.386719 215.304688 C 314.648438 215.933594 314.964844 216.53125 315.34375 217.09375 C 315.722656 217.660156 316.148438 218.179688 316.628906 218.660156 C 317.109375 219.140625 317.632812 219.570312 318.195312 219.945312 C 318.761719 220.324219 319.355469 220.640625 319.984375 220.902344 C 320.609375 221.160156 321.257812 221.359375 321.921875 221.492188 C 322.589844 221.621094 323.261719 221.6875 323.941406 221.6875 L 468.699219 221.6875 C 469.375 221.6875 470.046875 221.621094 470.714844 221.492188 C 471.378906 221.359375 472.027344 221.160156 472.652344 220.902344 C 473.28125 220.640625 473.878906 220.324219 474.441406 219.945312 C 475.007812 219.570312 475.527344 219.140625 476.007812 218.660156 C 476.488281 218.179688 476.917969 217.660156 477.292969 217.09375 C 477.671875 216.53125 477.988281 215.933594 478.25 215.304688 C 478.507812 214.679688 478.707031 214.03125 478.839844 213.367188 C 478.972656 212.699219 479.035156 212.027344 479.035156 211.351562 L 479.035156 66.601562 C 479.035156 65.921875 478.96875 65.25 478.839844 64.582031 C 478.707031 63.917969 478.507812 63.269531 478.25 62.644531 C 477.988281 62.015625 477.671875 61.421875 477.292969 60.855469 C 476.917969 60.292969 476.488281 59.769531 476.007812 59.289062 C 475.527344 58.808594 475.007812 58.382812 474.441406 58.003906 C 473.878906 57.628906 473.28125 57.308594 472.652344 57.046875 C 472.027344 56.789062 471.378906 56.59375 470.714844 56.460938 C 470.046875 56.328125 469.375 56.261719 468.699219 56.261719 Z M 137.824219 76.941406 L 261.902344 76.941406 L 261.902344 201.011719 L 240.636719 201.011719 C 237.894531 185.25 225.578125 171.871094 208.730469 170.175781 C 205.242188 169.824219 201.878906 170.152344 198.613281 170.761719 L 248.917969 114.882812 L 233.527344 101.03125 L 193.765625 145.234375 L 165.230469 120.78125 L 151.78125 136.492188 L 193.261719 172.03125 C 180.746094 176.425781 171.394531 187.574219 169.410156 201.011719 L 137.824219 201.011719 Z M 334.28125 76.941406 L 458.359375 76.941406 L 458.359375 201.011719 L 334.28125 201.011719 Z M 203.175781 190.753906 C 204.300781 190.628906 205.46875 190.632812 206.667969 190.753906 C 214.398438 191.53125 220.542969 199.089844 220.542969 207.65625 L 220.542969 209.613281 C 220.355469 210.738281 220.355469 211.863281 220.542969 212.984375 L 220.542969 309.574219 C 220.550781 310.246094 220.628906 310.910156 220.765625 311.570312 C 220.90625 312.226562 221.109375 312.867188 221.371094 313.484375 C 221.636719 314.101562 221.957031 314.691406 222.335938 315.246094 C 222.714844 315.804688 223.144531 316.316406 223.621094 316.789062 C 224.101562 317.261719 224.621094 317.683594 225.183594 318.054688 C 225.746094 318.425781 226.335938 318.738281 226.960938 318.992188 C 227.582031 319.25 228.222656 319.441406 228.882812 319.570312 C 229.542969 319.703125 230.210938 319.765625 230.882812 319.765625 C 231.554688 319.765625 232.222656 319.703125 232.882812 319.570312 C 233.542969 319.441406 234.183594 319.25 234.804688 318.992188 C 235.429688 318.738281 236.019531 318.425781 236.582031 318.054688 C 237.144531 317.683594 237.664062 317.261719 238.144531 316.789062 C 238.621094 316.316406 239.050781 315.804688 239.429688 315.246094 C 239.808594 314.691406 240.128906 314.101562 240.394531 313.484375 C 240.65625 312.867188 240.859375 312.226562 241 311.570312 C 241.136719 310.910156 241.214844 310.246094 241.222656 309.574219 C 241.222656 300.34375 248.773438 293.183594 258.367188 294.144531 C 266.097656 294.921875 272.242188 302.480469 272.242188 311.046875 L 272.242188 319.910156 C 272.25 320.585938 272.324219 321.25 272.464844 321.910156 C 272.605469 322.566406 272.804688 323.203125 273.070312 323.824219 C 273.335938 324.441406 273.65625 325.03125 274.035156 325.585938 C 274.414062 326.140625 274.84375 326.65625 275.320312 327.128906 C 275.800781 327.601562 276.320312 328.023438 276.882812 328.394531 C 277.445312 328.765625 278.035156 329.078125 278.65625 329.332031 C 279.28125 329.589844 279.921875 329.78125 280.582031 329.910156 C 281.242188 330.039062 281.910156 330.105469 282.582031 330.105469 C 283.253906 330.105469 283.921875 330.039062 284.582031 329.910156 C 285.242188 329.78125 285.882812 329.589844 286.503906 329.332031 C 287.128906 329.078125 287.71875 328.765625 288.28125 328.394531 C 288.84375 328.023438 289.363281 327.601562 289.839844 327.128906 C 290.320312 326.65625 290.75 326.140625 291.128906 325.585938 C 291.507812 325.03125 291.828125 324.441406 292.09375 323.824219 C 292.355469 323.203125 292.558594 322.566406 292.699219 321.910156 C 292.835938 321.25 292.910156 320.585938 292.921875 319.910156 C 292.921875 310.683594 300.472656 303.523438 310.066406 304.484375 C 317.796875 305.261719 323.941406 312.820312 323.941406 321.386719 L 323.941406 340.589844 C 323.949219 341.261719 324.023438 341.929688 324.164062 342.585938 C 324.304688 343.246094 324.503906 343.882812 324.769531 344.503906 C 325.035156 345.121094 325.355469 345.707031 325.734375 346.265625 C 326.113281 346.820312 326.542969 347.335938 327.019531 347.808594 C 327.5 348.28125 328.019531 348.703125 328.582031 349.070312 C 329.140625 349.441406 329.734375 349.753906 330.355469 350.011719 C 330.980469 350.265625 331.621094 350.460938 332.28125 350.589844 C 332.941406 350.71875 333.609375 350.785156 334.28125 350.785156 C 334.953125 350.785156 335.621094 350.71875 336.28125 350.589844 C 336.941406 350.460938 337.582031 350.265625 338.203125 350.011719 C 338.828125 349.753906 339.417969 349.441406 339.980469 349.070312 C 340.542969 348.703125 341.0625 348.28125 341.539062 347.808594 C 342.019531 347.335938 342.449219 346.820312 342.828125 346.265625 C 343.207031 345.707031 343.527344 345.121094 343.792969 344.503906 C 344.054688 343.882812 344.257812 343.246094 344.398438 342.585938 C 344.535156 341.929688 344.609375 341.261719 344.621094 340.589844 C 344.621094 331.363281 352.171875 324.199219 361.765625 325.164062 C 369.484375 325.933594 375.640625 333.5 375.640625 342.066406 L 375.640625 438.8125 C 375.640625 467.492188 352.621094 490.507812 323.941406 490.507812 L 235.851562 490.507812 C 222.164062 490.507812 209.042969 485.089844 199.359375 475.425781 C 199.351562 475.417969 199.34375 475.410156 199.339844 475.402344 L 90.546875 366.941406 C 84.039062 360.414062 84.332031 350.011719 91.78125 343.921875 C 97.789062 339.007812 107.472656 340.003906 113.53125 346.0625 L 171.875 404.402344 C 172.597656 405.125 173.410156 405.726562 174.3125 406.210938 C 175.210938 406.691406 176.164062 407.03125 177.167969 407.230469 C 178.167969 407.429688 179.179688 407.480469 180.195312 407.378906 C 181.214844 407.277344 182.195312 407.03125 183.140625 406.640625 C 184.085938 406.25 184.953125 405.730469 185.742188 405.082031 C 186.53125 404.433594 187.210938 403.683594 187.78125 402.835938 C 188.347656 401.984375 188.78125 401.070312 189.078125 400.09375 C 189.375 399.113281 189.523438 398.113281 189.523438 397.09375 L 189.523438 206.179688 C 189.523438 198.105469 195.304688 191.605469 203.175781 190.753906 Z M 203.175781 190.753906 " fill-opacity="1" fill-rule="nonzero"/></g></svg>