<svg xmlns="http://www.w3.org/2000/svg" xmlns:xlink="http://www.w3.org/1999/xlink" width="720" zoomAndPan="magnify" viewBox="0 0 540 540.000001" height="720" preserveAspectRatio="xMidYMid meet" version="1.0"><defs><clipPath id="fa652251ab"><path d="M 71.289062 53.898438 L 485.273438 53.898438 L 485.273438 467.882812 L 71.289062 467.882812 Z M 71.289062 53.898438 " clip-rule="nonzero"/></clipPath></defs><path fill="#ffffff" d="M 459.398438 76.539062 C 459.398438 76.96875 459.316406 77.382812 459.152344 77.777344 C 458.988281 78.175781 458.753906 78.523438 458.453125 78.828125 C 458.148438 79.128906 457.796875 79.363281 457.402344 79.527344 C 457.007812 79.691406 456.59375 79.773438 456.164062 79.773438 C 455.734375 79.773438 455.324219 79.691406 454.925781 79.527344 C 454.53125 79.363281 454.179688 79.128906 453.878906 78.828125 C 453.574219 78.523438 453.339844 78.175781 453.175781 77.777344 C 453.011719 77.382812 452.929688 76.96875 452.929688 76.539062 C 452.929688 76.109375 453.011719 75.699219 453.175781 75.300781 C 453.339844 74.90625 453.574219 74.554688 453.878906 74.253906 C 454.179688 73.949219 454.53125 73.714844 454.925781 73.550781 C 455.324219 73.386719 455.734375 73.304688 456.164062 73.304688 C 456.59375 73.304688 457.007812 73.386719 457.402344 73.550781 C 457.796875 73.714844 458.148438 73.949219 458.453125 74.253906 C 458.753906 74.554688 458.988281 74.90625 459.152344 75.300781 C 459.316406 75.699219 459.398438 76.109375 459.398438 76.539062 Z M 459.398438 76.539062 " fill-opacity="1" fill-rule="nonzero"/><path fill="#ffffff" d="M 443.421875 73.3125 C 443.847656 73.335938 444.253906 73.445312 444.640625 73.632812 C 445.027344 73.820312 445.363281 74.074219 445.648438 74.394531 C 445.929688 74.714844 446.144531 75.078125 446.285156 75.484375 C 446.425781 75.886719 446.480469 76.304688 446.457031 76.734375 C 446.429688 77.160156 446.324219 77.566406 446.136719 77.953125 C 445.949219 78.339844 445.695312 78.675781 445.375 78.960938 C 445.054688 79.242188 444.691406 79.457031 444.285156 79.597656 C 443.878906 79.738281 443.460938 79.792969 443.035156 79.769531 C 442.605469 79.742188 442.199219 79.636719 441.8125 79.449219 C 441.429688 79.261719 441.09375 79.007812 440.808594 78.6875 C 440.523438 78.367188 440.3125 78.003906 440.171875 77.597656 C 440.03125 77.191406 439.972656 76.773438 440 76.347656 C 440.023438 75.917969 440.132812 75.511719 440.320312 75.125 C 440.507812 74.742188 440.761719 74.40625 441.082031 74.121094 C 441.402344 73.835938 441.765625 73.625 442.171875 73.484375 C 442.574219 73.34375 442.992188 73.285156 443.421875 73.3125 Z M 443.421875 73.3125 " fill-opacity="1" fill-rule="nonzero"/><path fill="#ffffff" d="M 430.484375 73.3125 C 430.910156 73.335938 431.320312 73.445312 431.703125 73.632812 C 432.089844 73.820312 432.425781 74.074219 432.710938 74.394531 C 432.996094 74.714844 433.207031 75.078125 433.347656 75.484375 C 433.488281 75.886719 433.542969 76.304688 433.519531 76.734375 C 433.492188 77.160156 433.386719 77.566406 433.199219 77.953125 C 433.011719 78.339844 432.757812 78.675781 432.4375 78.960938 C 432.117188 79.242188 431.753906 79.457031 431.347656 79.597656 C 430.941406 79.738281 430.527344 79.792969 430.097656 79.769531 C 429.667969 79.742188 429.261719 79.636719 428.878906 79.449219 C 428.492188 79.261719 428.15625 79.007812 427.871094 78.6875 C 427.585938 78.367188 427.375 78.003906 427.234375 77.597656 C 427.09375 77.191406 427.035156 76.773438 427.0625 76.347656 C 427.085938 75.917969 427.195312 75.511719 427.382812 75.125 C 427.570312 74.742188 427.824219 74.40625 428.144531 74.121094 C 428.464844 73.835938 428.828125 73.625 429.234375 73.484375 C 429.636719 73.34375 430.054688 73.285156 430.484375 73.3125 Z M 430.484375 73.3125 " fill-opacity="1" fill-rule="nonzero"/><g clip-path="url(#fa652251ab)"><path fill="#ffffff" d="M 472.335938 53.898438 L 84.226562 53.898438 C 77.109375 53.898438 71.289062 59.722656 71.289062 66.835938 L 71.289062 454.945312 C 71.289062 462.0625 77.109375 467.882812 84.226562 467.882812 L 472.335938 467.882812 C 479.453125 467.882812 485.273438 462.0625 485.273438 454.945312 L 485.273438 66.835938 C 485.273438 59.722656 479.453125 53.898438 472.335938 53.898438 Z M 478.804688 454.945312 C 478.804688 458.511719 475.902344 461.414062 472.335938 461.414062 L 84.226562 461.414062 C 80.660156 461.414062 77.757812 458.511719 77.757812 454.945312 L 77.757812 99.179688 L 478.804688 99.179688 Z M 478.804688 92.710938 L 77.757812 92.710938 L 77.757812 66.835938 C 77.757812 63.269531 80.660156 60.367188 84.226562 60.367188 L 472.335938 60.367188 C 475.902344 60.367188 478.804688 63.269531 478.804688 66.835938 Z M 478.804688 92.710938 " fill-opacity="1" fill-rule="nonzero"/></g><path fill="#ffffff" d="M 103.632812 170.332031 L 161.847656 170.332031 C 168.964844 170.332031 174.785156 164.511719 174.785156 157.394531 L 174.785156 128.289062 C 174.785156 121.171875 168.964844 115.351562 161.847656 115.351562 L 103.632812 115.351562 C 96.515625 115.351562 90.695312 121.171875 90.695312 128.289062 L 90.695312 157.394531 C 90.695312 164.511719 96.515625 170.332031 103.632812 170.332031 Z M 97.164062 128.289062 C 97.164062 124.71875 100.066406 121.820312 103.632812 121.820312 L 161.847656 121.820312 C 165.414062 121.820312 168.316406 124.71875 168.316406 128.289062 L 168.316406 157.394531 C 168.316406 160.964844 165.414062 163.863281 161.847656 163.863281 L 103.632812 163.863281 C 100.066406 163.863281 97.164062 160.964844 97.164062 157.394531 Z M 97.164062 128.289062 " fill-opacity="1" fill-rule="nonzero"/><path fill="#ffffff" d="M 103.632812 238.253906 L 161.847656 238.253906 C 168.964844 238.253906 174.785156 232.429688 174.785156 225.316406 L 174.785156 196.207031 C 174.785156 189.089844 168.964844 183.269531 161.847656 183.269531 L 103.632812 183.269531 C 96.515625 183.269531 90.695312 189.089844 90.695312 196.207031 L 90.695312 225.316406 C 90.695312 232.429688 96.515625 238.253906 103.632812 238.253906 Z M 97.164062 196.207031 C 97.164062 192.640625 100.066406 189.738281 103.632812 189.738281 L 161.847656 189.738281 C 165.414062 189.738281 168.316406 192.640625 168.316406 196.207031 L 168.316406 225.316406 C 168.316406 228.882812 165.414062 231.785156 161.847656 231.785156 L 103.632812 231.785156 C 100.066406 231.785156 97.164062 228.882812 97.164062 225.316406 Z M 97.164062 196.207031 " fill-opacity="1" fill-rule="nonzero"/><path fill="#ffffff" d="M 103.632812 306.171875 L 161.847656 306.171875 C 168.964844 306.171875 174.785156 300.351562 174.785156 293.234375 L 174.785156 264.125 C 174.785156 257.011719 168.964844 251.1875 161.847656 251.1875 L 103.632812 251.1875 C 96.515625 251.1875 90.695312 257.011719 90.695312 264.125 L 90.695312 293.234375 C 90.695312 300.351562 96.515625 306.171875 103.632812 306.171875 Z M 97.164062 264.125 C 97.164062 260.558594 100.066406 257.65625 103.632812 257.65625 L 161.847656 257.65625 C 165.414062 257.65625 168.316406 260.558594 168.316406 264.125 L 168.316406 293.234375 C 168.316406 296.800781 165.414062 299.703125 161.847656 299.703125 L 103.632812 299.703125 C 100.066406 299.703125 97.164062 296.800781 97.164062 293.234375 Z M 97.164062 264.125 " fill-opacity="1" fill-rule="nonzero"/><path fill="#ffffff" d="M 103.632812 442.007812 L 161.847656 442.007812 C 168.964844 442.007812 174.785156 436.1875 174.785156 429.074219 L 174.785156 399.964844 C 174.785156 392.847656 168.964844 387.027344 161.847656 387.027344 L 103.632812 387.027344 C 96.515625 387.027344 90.695312 392.847656 90.695312 399.964844 L 90.695312 429.074219 C 90.695312 436.1875 96.515625 442.007812 103.632812 442.007812 Z M 97.164062 399.964844 C 97.164062 396.398438 100.066406 393.496094 103.632812 393.496094 L 161.847656 393.496094 C 165.414062 393.496094 168.316406 396.398438 168.316406 399.964844 L 168.316406 429.074219 C 168.316406 432.636719 165.414062 435.542969 161.847656 435.542969 L 103.632812 435.542969 C 100.066406 435.542969 97.164062 432.636719 97.164062 429.074219 Z M 97.164062 399.964844 " fill-opacity="1" fill-rule="nonzero"/><path fill="#ffffff" d="M 200.660156 170.332031 L 258.875 170.332031 C 265.992188 170.332031 271.8125 164.511719 271.8125 157.394531 L 271.8125 128.289062 C 271.8125 121.171875 265.992188 115.351562 258.875 115.351562 L 200.660156 115.351562 C 193.542969 115.351562 187.722656 121.171875 187.722656 128.289062 L 187.722656 157.394531 C 187.722656 164.511719 193.542969 170.332031 200.660156 170.332031 Z M 194.191406 128.289062 C 194.191406 124.71875 197.09375 121.820312 200.660156 121.820312 L 258.875 121.820312 C 262.441406 121.820312 265.34375 124.71875 265.34375 128.289062 L 265.34375 157.394531 C 265.34375 160.964844 262.441406 163.863281 258.875 163.863281 L 200.660156 163.863281 C 197.09375 163.863281 194.191406 160.964844 194.191406 157.394531 Z M 194.191406 128.289062 " fill-opacity="1" fill-rule="nonzero"/><path fill="#ffffff" d="M 200.660156 238.253906 L 258.875 238.253906 C 265.992188 238.253906 271.8125 232.429688 271.8125 225.316406 L 271.8125 196.207031 C 271.8125 189.089844 265.992188 183.269531 258.875 183.269531 L 200.660156 183.269531 C 193.542969 183.269531 187.722656 189.089844 187.722656 196.207031 L 187.722656 225.316406 C 187.722656 232.429688 193.542969 238.253906 200.660156 238.253906 Z M 194.191406 196.207031 C 194.191406 192.640625 197.09375 189.738281 200.660156 189.738281 L 258.875 189.738281 C 262.441406 189.738281 265.34375 192.640625 265.34375 196.207031 L 265.34375 225.316406 C 265.34375 228.882812 262.441406 231.785156 258.875 231.785156 L 200.660156 231.785156 C 197.09375 231.785156 194.191406 228.882812 194.191406 225.316406 Z M 194.191406 196.207031 " fill-opacity="1" fill-rule="nonzero"/><path fill="#ffffff" d="M 200.660156 374.089844 L 258.875 374.089844 C 265.992188 374.089844 271.8125 368.269531 271.8125 361.152344 L 271.8125 332.046875 C 271.8125 324.929688 265.992188 319.109375 258.875 319.109375 L 200.660156 319.109375 C 193.542969 319.109375 187.722656 324.929688 187.722656 332.046875 L 187.722656 361.152344 C 187.722656 368.269531 193.542969 374.089844 200.660156 374.089844 Z M 194.191406 332.046875 C 194.191406 328.480469 197.09375 325.578125 200.660156 325.578125 L 258.875 325.578125 C 262.441406 325.578125 265.34375 328.480469 265.34375 332.046875 L 265.34375 361.152344 C 265.34375 364.71875 262.441406 367.621094 258.875 367.621094 L 200.660156 367.621094 C 197.09375 367.621094 194.191406 364.71875 194.191406 361.152344 Z M 194.191406 332.046875 " fill-opacity="1" fill-rule="nonzero"/><path fill="#ffffff" d="M 200.660156 442.007812 L 258.875 442.007812 C 265.992188 442.007812 271.8125 436.1875 271.8125 429.074219 L 271.8125 399.964844 C 271.8125 392.847656 265.992188 387.027344 258.875 387.027344 L 200.660156 387.027344 C 193.542969 387.027344 187.722656 392.847656 187.722656 399.964844 L 187.722656 429.074219 C 187.722656 436.1875 193.542969 442.007812 200.660156 442.007812 Z M 194.191406 399.964844 C 194.191406 396.398438 197.09375 393.496094 200.660156 393.496094 L 258.875 393.496094 C 262.441406 393.496094 265.34375 396.398438 265.34375 399.964844 L 265.34375 429.074219 C 265.34375 432.636719 262.441406 435.542969 258.875 435.542969 L 200.660156 435.542969 C 197.09375 435.542969 194.191406 432.636719 194.191406 429.074219 Z M 194.191406 399.964844 " fill-opacity="1" fill-rule="nonzero"/><path fill="#ffffff" d="M 297.6875 170.332031 L 355.902344 170.332031 C 363.019531 170.332031 368.839844 164.511719 368.839844 157.394531 L 368.839844 128.289062 C 368.839844 121.171875 363.019531 115.351562 355.902344 115.351562 L 297.6875 115.351562 C 290.570312 115.351562 284.75 121.171875 284.75 128.289062 L 284.75 157.394531 C 284.75 164.511719 290.570312 170.332031 297.6875 170.332031 Z M 291.21875 128.289062 C 291.21875 124.71875 294.121094 121.820312 297.6875 121.820312 L 355.902344 121.820312 C 359.46875 121.820312 362.371094 124.71875 362.371094 128.289062 L 362.371094 157.394531 C 362.371094 160.964844 359.46875 163.863281 355.902344 163.863281 L 297.6875 163.863281 C 294.121094 163.863281 291.21875 160.964844 291.21875 157.394531 Z M 291.21875 128.289062 " fill-opacity="1" fill-rule="nonzero"/><path fill="#ffffff" d="M 297.6875 238.253906 L 355.902344 238.253906 C 363.019531 238.253906 368.839844 232.429688 368.839844 225.316406 L 368.839844 196.207031 C 368.839844 189.089844 363.019531 183.269531 355.902344 183.269531 L 297.6875 183.269531 C 290.570312 183.269531 284.75 189.089844 284.75 196.207031 L 284.75 225.316406 C 284.75 232.429688 290.570312 238.253906 297.6875 238.253906 Z M 291.21875 196.207031 C 291.21875 192.640625 294.121094 189.738281 297.6875 189.738281 L 355.902344 189.738281 C 359.46875 189.738281 362.371094 192.640625 362.371094 196.207031 L 362.371094 225.316406 C 362.371094 228.882812 359.46875 231.785156 355.902344 231.785156 L 297.6875 231.785156 C 294.121094 231.785156 291.21875 228.882812 291.21875 225.316406 Z M 291.21875 196.207031 " fill-opacity="1" fill-rule="nonzero"/><path fill="#ffffff" d="M 297.6875 306.171875 L 355.902344 306.171875 C 363.019531 306.171875 368.839844 300.351562 368.839844 293.234375 L 368.839844 264.125 C 368.839844 257.011719 363.019531 251.1875 355.902344 251.1875 L 297.6875 251.1875 C 290.570312 251.1875 284.75 257.011719 284.75 264.125 L 284.75 293.234375 C 284.75 300.351562 290.570312 306.171875 297.6875 306.171875 Z M 291.21875 264.125 C 291.21875 260.558594 294.121094 257.65625 297.6875 257.65625 L 355.902344 257.65625 C 359.46875 257.65625 362.371094 260.558594 362.371094 264.125 L 362.371094 293.234375 C 362.371094 296.800781 359.46875 299.703125 355.902344 299.703125 L 297.6875 299.703125 C 294.121094 299.703125 291.21875 296.800781 291.21875 293.234375 Z M 291.21875 264.125 " fill-opacity="1" fill-rule="nonzero"/><path fill="#ffffff" d="M 297.6875 374.089844 L 355.902344 374.089844 C 363.019531 374.089844 368.839844 368.269531 368.839844 361.152344 L 368.839844 332.046875 C 368.839844 324.929688 363.019531 319.109375 355.902344 319.109375 L 297.6875 319.109375 C 290.570312 319.109375 284.75 324.929688 284.75 332.046875 L 284.75 361.152344 C 284.75 368.269531 290.570312 374.089844 297.6875 374.089844 Z M 291.21875 332.046875 C 291.21875 328.480469 294.121094 325.578125 297.6875 325.578125 L 355.902344 325.578125 C 359.46875 325.578125 362.371094 328.480469 362.371094 332.046875 L 362.371094 361.152344 C 362.371094 364.71875 359.46875 367.621094 355.902344 367.621094 L 297.6875 367.621094 C 294.121094 367.621094 291.21875 364.71875 291.21875 361.152344 Z M 291.21875 332.046875 " fill-opacity="1" fill-rule="nonzero"/><path fill="#ffffff" d="M 394.714844 170.332031 L 452.929688 170.332031 C 460.046875 170.332031 465.867188 164.511719 465.867188 157.394531 L 465.867188 128.289062 C 465.867188 121.171875 460.046875 115.351562 452.929688 115.351562 L 394.714844 115.351562 C 387.597656 115.351562 381.777344 121.171875 381.777344 128.289062 L 381.777344 157.394531 C 381.777344 164.511719 387.597656 170.332031 394.714844 170.332031 Z M 388.246094 128.289062 C 388.246094 124.71875 391.148438 121.820312 394.714844 121.820312 L 452.929688 121.820312 C 456.496094 121.820312 459.398438 124.71875 459.398438 128.289062 L 459.398438 157.394531 C 459.398438 160.964844 456.496094 163.863281 452.929688 163.863281 L 394.714844 163.863281 C 391.148438 163.863281 388.246094 160.964844 388.246094 157.394531 Z M 388.246094 128.289062 " fill-opacity="1" fill-rule="nonzero"/><path fill="#ffffff" d="M 394.714844 306.171875 L 452.929688 306.171875 C 460.046875 306.171875 465.867188 300.351562 465.867188 293.234375 L 465.867188 264.125 C 465.867188 257.011719 460.046875 251.1875 452.929688 251.1875 L 394.714844 251.1875 C 387.597656 251.1875 381.777344 257.011719 381.777344 264.125 L 381.777344 293.234375 C 381.777344 300.351562 387.597656 306.171875 394.714844 306.171875 Z M 388.246094 264.125 C 388.246094 260.558594 391.148438 257.65625 394.714844 257.65625 L 452.929688 257.65625 C 456.496094 257.65625 459.398438 260.558594 459.398438 264.125 L 459.398438 293.234375 C 459.398438 296.800781 456.496094 299.703125 452.929688 299.703125 L 394.714844 299.703125 C 391.148438 299.703125 388.246094 296.800781 388.246094 293.234375 Z M 388.246094 264.125 " fill-opacity="1" fill-rule="nonzero"/><path fill="#ffffff" d="M 394.714844 374.089844 L 452.929688 374.089844 C 460.046875 374.089844 465.867188 368.269531 465.867188 361.152344 L 465.867188 332.046875 C 465.867188 324.929688 460.046875 319.109375 452.929688 319.109375 L 394.714844 319.109375 C 387.597656 319.109375 381.777344 324.929688 381.777344 332.046875 L 381.777344 361.152344 C 381.777344 368.269531 387.597656 374.089844 394.714844 374.089844 Z M 388.246094 332.046875 C 388.246094 328.480469 391.148438 325.578125 394.714844 325.578125 L 452.929688 325.578125 C 456.496094 325.578125 459.398438 328.480469 459.398438 332.046875 L 459.398438 361.152344 C 459.398438 364.71875 456.496094 367.621094 452.929688 367.621094 L 394.714844 367.621094 C 391.148438 367.621094 388.246094 364.71875 388.246094 361.152344 Z M 388.246094 332.046875 " fill-opacity="1" fill-rule="nonzero"/><path fill="#ffffff" d="M 394.714844 442.007812 L 452.929688 442.007812 C 460.046875 442.007812 465.867188 436.1875 465.867188 429.074219 L 465.867188 399.964844 C 465.867188 392.847656 460.046875 387.027344 452.929688 387.027344 L 394.714844 387.027344 C 387.597656 387.027344 381.777344 392.847656 381.777344 399.964844 L 381.777344 429.074219 C 381.777344 436.1875 387.597656 442.007812 394.714844 442.007812 Z M 388.246094 399.964844 C 388.246094 396.398438 391.148438 393.496094 394.714844 393.496094 L 452.929688 393.496094 C 456.496094 393.496094 459.398438 396.398438 459.398438 399.964844 L 459.398438 429.074219 C 459.398438 432.636719 456.496094 435.542969 452.929688 435.542969 L 394.714844 435.542969 C 391.148438 435.542969 388.246094 432.636719 388.246094 429.074219 Z M 388.246094 399.964844 " fill-opacity="1" fill-rule="nonzero"/></svg>