<svg xmlns="http://www.w3.org/2000/svg" xmlns:xlink="http://www.w3.org/1999/xlink" width="720" zoomAndPan="magnify" viewBox="0 0 540 540.000001" height="720" preserveAspectRatio="xMidYMid meet" version="1.0"><defs><clipPath id="520f0be31b"><path d="M 53.007812 140 L 485.707031 140 L 485.707031 155 L 53.007812 155 Z M 53.007812 140 " clip-rule="nonzero"/></clipPath><clipPath id="eeead79a0a"><path d="M 53.007812 262 L 485.707031 262 L 485.707031 277 L 53.007812 277 Z M 53.007812 262 " clip-rule="nonzero"/></clipPath><clipPath id="978e525d11"><path d="M 53.007812 383 L 485.707031 383 L 485.707031 398 L 53.007812 398 Z M 53.007812 383 " clip-rule="nonzero"/></clipPath><clipPath id="c2bd57dc91"><path d="M 171 96.464844 L 275 96.464844 L 275 200 L 171 200 Z M 171 96.464844 " clip-rule="nonzero"/></clipPath><clipPath id="dec05e34c5"><path d="M 107 339 L 211 339 L 211 442.324219 L 107 442.324219 Z M 107 339 " clip-rule="nonzero"/></clipPath></defs><g clip-path="url(#520f0be31b)"><path fill="#ffffff" d="M 478.785156 154.613281 L 267.625 154.613281 C 263.875 154.613281 260.777344 151.515625 260.777344 147.769531 C 260.777344 144.019531 263.804688 140.921875 267.625 140.921875 L 478.785156 140.921875 C 482.535156 140.921875 485.632812 144.019531 485.632812 147.769531 C 485.632812 151.515625 482.605469 154.613281 478.785156 154.613281 Z M 178.273438 154.613281 L 59.929688 154.613281 C 56.179688 154.613281 53.082031 151.515625 53.082031 147.769531 C 53.082031 144.019531 56.109375 140.921875 59.929688 140.921875 L 178.273438 140.921875 C 182.023438 140.921875 185.125 144.019531 185.125 147.769531 C 185.125 151.515625 182.097656 154.613281 178.273438 154.613281 Z M 178.273438 154.613281 " fill-opacity="1" fill-rule="nonzero"/></g><g clip-path="url(#eeead79a0a)"><path fill="#ffffff" d="M 478.785156 276.167969 L 410.488281 276.167969 C 406.738281 276.167969 403.636719 273.070312 403.636719 269.320312 C 403.636719 265.574219 406.667969 262.476562 410.488281 262.476562 L 478.785156 262.476562 C 482.535156 262.476562 485.632812 265.574219 485.632812 269.320312 C 485.632812 273.070312 482.605469 276.167969 478.785156 276.167969 Z M 321.136719 276.167969 L 59.929688 276.167969 C 56.179688 276.167969 53.082031 273.070312 53.082031 269.320312 C 53.082031 265.574219 56.109375 262.476562 59.929688 262.476562 L 321.210938 262.476562 C 324.960938 262.476562 328.058594 265.574219 328.058594 269.320312 C 328.058594 273.070312 325.03125 276.167969 321.210938 276.167969 Z M 321.136719 276.167969 " fill-opacity="1" fill-rule="nonzero"/></g><g clip-path="url(#978e525d11)"><path fill="#ffffff" d="M 478.785156 397.648438 L 203.226562 397.648438 C 199.476562 397.648438 196.375 394.550781 196.375 390.804688 C 196.375 387.054688 199.40625 383.957031 203.226562 383.957031 L 478.785156 383.957031 C 482.535156 383.957031 485.632812 387.054688 485.632812 390.804688 C 485.632812 394.550781 482.605469 397.648438 478.785156 397.648438 Z M 113.875 397.648438 L 59.929688 397.648438 C 56.179688 397.648438 53.082031 394.550781 53.082031 390.804688 C 53.082031 387.054688 56.109375 383.957031 59.929688 383.957031 L 113.875 383.957031 C 117.625 383.957031 120.726562 387.054688 120.726562 390.804688 C 120.726562 394.550781 117.695312 397.648438 113.875 397.648438 Z M 113.875 397.648438 " fill-opacity="1" fill-rule="nonzero"/></g><g clip-path="url(#c2bd57dc91)"><path fill="#ffffff" d="M 222.84375 199.359375 C 194.5 199.359375 171.421875 176.230469 171.421875 147.769531 C 171.421875 119.308594 194.5 96.394531 222.84375 96.394531 C 251.183594 96.394531 274.476562 119.453125 274.476562 147.769531 C 274.476562 176.085938 251.328125 199.359375 222.84375 199.359375 Z M 222.84375 110.085938 C 202.074219 110.085938 185.125 127.015625 185.125 147.769531 C 185.125 168.519531 202.074219 185.667969 222.84375 185.667969 C 243.613281 185.667969 260.777344 168.664062 260.777344 147.769531 C 260.777344 126.871094 243.757812 110.085938 222.84375 110.085938 Z M 222.84375 110.085938 " fill-opacity="1" fill-rule="nonzero"/></g><path fill="#ffffff" d="M 365.921875 320.839844 C 337.433594 320.839844 314.285156 297.710938 314.285156 269.25 C 314.285156 240.789062 337.433594 217.875 365.921875 217.875 C 394.40625 217.875 417.339844 240.933594 417.339844 269.25 C 417.339844 297.566406 394.261719 320.839844 365.921875 320.839844 Z M 365.921875 231.566406 C 345.007812 231.566406 327.988281 248.5 327.988281 269.25 C 327.988281 290 345.007812 307.148438 365.921875 307.148438 C 386.835938 307.148438 403.636719 290.144531 403.636719 269.25 C 403.636719 248.355469 386.691406 231.566406 365.921875 231.566406 Z M 365.921875 231.566406 " fill-opacity="1" fill-rule="nonzero"/><g clip-path="url(#dec05e34c5)"><path fill="#ffffff" d="M 158.660156 442.394531 C 130.171875 442.394531 107.023438 419.265625 107.023438 390.804688 C 107.023438 362.34375 130.171875 339.429688 158.660156 339.429688 C 187.144531 339.429688 210.078125 362.484375 210.078125 390.804688 C 210.078125 419.121094 187 442.394531 158.660156 442.394531 Z M 158.660156 353.121094 C 137.746094 353.121094 120.726562 370.050781 120.726562 390.804688 C 120.726562 411.554688 137.746094 428.703125 158.660156 428.703125 C 179.574219 428.703125 196.375 411.699219 196.375 390.804688 C 196.375 369.90625 179.429688 353.121094 158.660156 353.121094 Z M 158.660156 353.121094 " fill-opacity="1" fill-rule="nonzero"/></g></svg>