<svg xmlns="http://www.w3.org/2000/svg" xmlns:xlink="http://www.w3.org/1999/xlink" width="720" zoomAndPan="magnify" viewBox="0 0 540 540.000001" height="720" preserveAspectRatio="xMidYMid meet" version="1.0"><defs><clipPath id="a879b8600a"><path d="M 41.128906 40.628906 L 498.53125 40.628906 L 498.53125 498.035156 L 41.128906 498.035156 Z M 41.128906 40.628906 " clip-rule="nonzero"/></clipPath></defs><path fill="#e6e9ed" d="M 491.15625 62.761719 L 491.15625 195.558594 C 491.15625 203.671875 484.515625 210.3125 476.398438 210.3125 L 410.003906 210.3125 L 397.757812 234.804688 C 396.207031 237.902344 393.035156 239.820312 389.640625 239.820312 C 384.550781 239.820312 380.492188 235.765625 380.492188 230.675781 L 380.492188 210.3125 L 281.929688 210.3125 C 280.453125 208.984375 278.90625 207.878906 277.207031 206.917969 L 277.207031 180.800781 C 277.207031 149.078125 262.894531 120.675781 240.320312 101.714844 L 240.320312 62.761719 C 240.320312 54.648438 246.960938 48.007812 255.074219 48.007812 L 476.398438 48.007812 C 484.515625 48.007812 491.15625 54.648438 491.15625 62.761719 Z M 491.15625 62.761719 " fill-opacity="1" fill-rule="nonzero"/><path fill="#fcd770" d="M 299.339844 490.65625 L 210.8125 490.65625 C 227.117188 490.65625 240.320312 477.449219 240.320312 461.144531 L 240.320312 402.125 C 240.320312 385.820312 227.117188 372.617188 210.8125 372.617188 L 173.921875 372.617188 L 173.921875 365.238281 L 203.433594 343.105469 C 203.433594 343.105469 299.339844 350.484375 299.339844 490.65625 Z M 299.339844 490.65625 " fill-opacity="1" fill-rule="nonzero"/><path fill="#fcd770" d="M 173.921875 365.238281 L 173.921875 372.617188 L 137.035156 372.617188 C 120.730469 372.617188 107.527344 385.820312 107.527344 402.125 L 107.527344 461.144531 C 107.527344 477.449219 120.730469 490.65625 137.035156 490.65625 L 48.507812 490.65625 C 48.507812 350.484375 144.414062 343.105469 144.414062 343.105469 Z M 173.921875 365.238281 " fill-opacity="1" fill-rule="nonzero"/><path fill="#aab2bd" d="M 107.527344 461.144531 L 240.320312 461.144531 C 240.320312 477.449219 227.117188 490.65625 210.8125 490.65625 L 137.035156 490.65625 C 120.730469 490.65625 107.527344 477.449219 107.527344 461.144531 Z M 107.527344 461.144531 " fill-opacity="1" fill-rule="nonzero"/><path fill="#ccd1d9" d="M 240.320312 402.125 L 240.320312 461.144531 L 107.527344 461.144531 L 107.527344 402.125 C 107.527344 385.820312 120.730469 372.617188 137.035156 372.617188 L 210.8125 372.617188 C 227.117188 372.617188 240.320312 385.820312 240.320312 402.125 Z M 240.320312 402.125 " fill-opacity="1" fill-rule="nonzero"/><path fill="#f0d0b4" d="M 247.699219 210.3125 L 247.699219 257.824219 C 247.699219 259.226562 247.625 260.625 247.550781 261.953125 C 246.074219 285.488281 232.207031 306.515625 211.03125 317.210938 L 207.492188 318.910156 C 204.984375 320.164062 203.433594 322.746094 203.433594 325.546875 L 203.433594 343.105469 L 173.921875 365.238281 L 144.414062 343.105469 L 144.414062 320.972656 L 166.546875 320.972656 C 174.660156 320.972656 181.300781 314.335938 181.300781 306.21875 C 181.300781 302.160156 179.679688 298.472656 176.949219 295.816406 C 174.292969 293.085938 170.605469 291.464844 166.546875 291.464844 L 144.414062 291.464844 C 136.296875 291.464844 129.660156 298.105469 129.660156 306.21875 L 129.660156 313.007812 C 112.46875 301.570312 101.550781 282.683594 100.296875 261.953125 C 100.222656 260.550781 100.148438 259.226562 100.148438 257.824219 L 100.148438 202.933594 L 133.570312 202.933594 C 153.785156 202.933594 172.226562 191.5 181.300781 173.425781 C 185.875 182.425781 192.738281 189.800781 201 194.96875 C 209.261719 200.058594 218.925781 202.933594 229.035156 202.933594 L 247.699219 202.933594 Z M 247.699219 210.3125 " fill-opacity="1" fill-rule="nonzero"/><path fill="#b27946" d="M 100.148438 202.933594 L 100.148438 180.800781 C 100.148438 160.441406 108.410156 141.996094 121.765625 128.644531 C 135.117188 115.289062 153.5625 107.027344 173.921875 107.027344 C 214.648438 107.027344 247.699219 140.078125 247.699219 180.800781 L 247.699219 202.933594 L 229.035156 202.933594 C 218.925781 202.933594 209.261719 200.058594 201 194.96875 C 192.738281 189.800781 185.875 182.425781 181.300781 173.425781 C 172.226562 191.5 153.785156 202.933594 133.570312 202.933594 Z M 100.148438 202.933594 " fill-opacity="1" fill-rule="nonzero"/><path fill="#aab2bd" d="M 281.929688 210.3125 C 288.054688 215.699219 291.964844 223.589844 291.964844 232.445312 C 291.964844 240.558594 288.644531 247.9375 283.332031 253.324219 C 277.945312 258.632812 270.570312 261.953125 262.453125 261.953125 L 247.550781 261.953125 C 247.625 260.625 247.699219 259.226562 247.699219 257.824219 L 247.699219 202.933594 L 262.453125 202.933594 C 267.839844 202.933594 272.855469 204.410156 277.207031 206.917969 C 278.90625 207.878906 280.453125 208.984375 281.929688 210.3125 Z M 281.929688 210.3125 " fill-opacity="1" fill-rule="nonzero"/><path fill="#5cd6b3" d="M 461.644531 105.996094 L 461.644531 106.4375 C 461.644531 110.050781 460.832031 113.667969 459.210938 116.914062 C 452.941406 129.308594 444.972656 140.59375 435.382812 150.40625 C 425.9375 160.292969 414.871094 168.703125 402.773438 175.34375 L 398.050781 177.925781 C 394.582031 179.84375 390.746094 180.800781 386.835938 180.800781 C 379.679688 180.800781 372.96875 177.554688 368.542969 172.023438 L 360.796875 162.359375 C 359.246094 160.367188 358.359375 157.859375 358.359375 155.351562 C 358.359375 152.324219 359.539062 149.523438 361.679688 147.382812 L 376.804688 132.183594 C 378.796875 130.265625 381.453125 129.160156 384.179688 129.160156 C 386.910156 129.160156 389.566406 130.265625 391.558594 132.183594 L 397.09375 137.792969 C 403.066406 137.792969 408.378906 135.355469 412.289062 131.445312 C 416.199219 127.535156 418.632812 122.226562 418.632812 116.25 L 413.027344 110.714844 C 411.109375 108.722656 410.003906 106.070312 410.003906 103.339844 C 410.003906 100.609375 411.109375 97.953125 413.027344 95.960938 L 428.226562 80.835938 C 430.363281 78.699219 433.167969 77.519531 436.191406 77.519531 C 438.699219 77.519531 441.210938 78.402344 443.203125 79.953125 L 452.867188 87.699219 C 458.398438 92.125 461.644531 98.839844 461.644531 105.996094 Z M 461.644531 105.996094 " fill-opacity="1" fill-rule="nonzero"/><path fill="#ff826e" d="M 461.644531 284.085938 C 461.644531 285.054688 461.550781 286.015625 461.363281 286.964844 C 461.171875 287.914062 460.894531 288.839844 460.523438 289.734375 C 460.152344 290.628906 459.695312 291.480469 459.160156 292.285156 C 458.621094 293.089844 458.007812 293.835938 457.324219 294.519531 C 456.636719 295.203125 455.894531 295.816406 455.085938 296.355469 C 454.28125 296.894531 453.429688 297.347656 452.535156 297.71875 C 451.640625 298.089844 450.71875 298.367188 449.769531 298.558594 C 448.820312 298.746094 447.859375 298.839844 446.890625 298.839844 C 445.921875 298.839844 444.960938 298.746094 444.011719 298.558594 C 443.0625 298.367188 442.136719 298.089844 441.242188 297.71875 C 440.347656 297.347656 439.5 296.894531 438.691406 296.355469 C 437.886719 295.816406 437.140625 295.203125 436.457031 294.519531 C 435.773438 293.835938 435.160156 293.089844 434.621094 292.285156 C 434.082031 291.480469 433.628906 290.628906 433.257812 289.734375 C 432.886719 288.839844 432.609375 287.914062 432.417969 286.964844 C 432.230469 286.015625 432.136719 285.054688 432.136719 284.085938 C 432.136719 283.117188 432.230469 282.160156 432.417969 281.207031 C 432.609375 280.257812 432.886719 279.335938 433.257812 278.441406 C 433.628906 277.546875 434.082031 276.695312 434.621094 275.890625 C 435.160156 275.082031 435.773438 274.339844 436.457031 273.652344 C 437.140625 272.96875 437.886719 272.355469 438.691406 271.820312 C 439.5 271.28125 440.347656 270.824219 441.242188 270.453125 C 442.136719 270.085938 443.0625 269.804688 444.011719 269.617188 C 444.960938 269.425781 445.921875 269.332031 446.890625 269.332031 C 447.859375 269.332031 448.820312 269.425781 449.769531 269.617188 C 450.71875 269.804688 451.640625 270.085938 452.535156 270.453125 C 453.429688 270.824219 454.28125 271.28125 455.085938 271.820312 C 455.894531 272.355469 456.636719 272.96875 457.324219 273.652344 C 458.007812 274.339844 458.621094 275.082031 459.160156 275.890625 C 459.695312 276.695312 460.152344 277.546875 460.523438 278.441406 C 460.894531 279.335938 461.171875 280.257812 461.363281 281.207031 C 461.550781 282.160156 461.644531 283.117188 461.644531 284.085938 Z M 461.644531 284.085938 " fill-opacity="1" fill-rule="nonzero"/><path fill="#ff826e" d="M 402.625 284.085938 C 402.625 285.054688 402.53125 286.015625 402.339844 286.964844 C 402.152344 287.914062 401.871094 288.839844 401.503906 289.734375 C 401.132812 290.628906 400.675781 291.480469 400.136719 292.285156 C 399.601562 293.089844 398.988281 293.835938 398.304688 294.519531 C 397.617188 295.203125 396.875 295.816406 396.066406 296.355469 C 395.261719 296.894531 394.410156 297.347656 393.515625 297.71875 C 392.621094 298.089844 391.699219 298.367188 390.75 298.558594 C 389.796875 298.746094 388.839844 298.839844 387.871094 298.839844 C 386.902344 298.839844 385.941406 298.746094 384.992188 298.558594 C 384.042969 298.367188 383.117188 298.089844 382.222656 297.71875 C 381.328125 297.347656 380.476562 296.894531 379.671875 296.355469 C 378.867188 295.816406 378.121094 295.203125 377.4375 294.519531 C 376.753906 293.835938 376.140625 293.089844 375.601562 292.285156 C 375.0625 291.480469 374.609375 290.628906 374.238281 289.734375 C 373.867188 288.839844 373.589844 287.914062 373.398438 286.964844 C 373.210938 286.015625 373.117188 285.054688 373.117188 284.085938 C 373.117188 283.117188 373.210938 282.160156 373.398438 281.207031 C 373.589844 280.257812 373.867188 279.335938 374.238281 278.441406 C 374.609375 277.546875 375.0625 276.695312 375.601562 275.890625 C 376.140625 275.082031 376.753906 274.339844 377.4375 273.652344 C 378.121094 272.96875 378.867188 272.355469 379.671875 271.820312 C 380.476562 271.28125 381.328125 270.824219 382.222656 270.453125 C 383.117188 270.085938 384.042969 269.804688 384.992188 269.617188 C 385.941406 269.425781 386.902344 269.332031 387.871094 269.332031 C 388.839844 269.332031 389.796875 269.425781 390.75 269.617188 C 391.699219 269.804688 392.621094 270.085938 393.515625 270.453125 C 394.410156 270.824219 395.261719 271.28125 396.066406 271.820312 C 396.875 272.355469 397.617188 272.96875 398.304688 273.652344 C 398.988281 274.339844 399.601562 275.082031 400.136719 275.890625 C 400.675781 276.695312 401.132812 277.546875 401.503906 278.441406 C 401.871094 279.335938 402.152344 280.257812 402.339844 281.207031 C 402.53125 282.160156 402.625 283.117188 402.625 284.085938 Z M 402.625 284.085938 " fill-opacity="1" fill-rule="nonzero"/><path fill="#ff826e" d="M 343.605469 284.085938 C 343.605469 285.054688 343.511719 286.015625 343.320312 286.964844 C 343.132812 287.914062 342.851562 288.839844 342.480469 289.734375 C 342.113281 290.628906 341.65625 291.480469 341.117188 292.285156 C 340.582031 293.089844 339.96875 293.835938 339.285156 294.519531 C 338.597656 295.203125 337.855469 295.816406 337.046875 296.355469 C 336.242188 296.894531 335.390625 297.347656 334.496094 297.71875 C 333.601562 298.089844 332.679688 298.367188 331.730469 298.558594 C 330.777344 298.746094 329.820312 298.839844 328.851562 298.839844 C 327.882812 298.839844 326.921875 298.746094 325.972656 298.558594 C 325.023438 298.367188 324.097656 298.089844 323.203125 297.71875 C 322.308594 297.347656 321.457031 296.894531 320.652344 296.355469 C 319.847656 295.816406 319.101562 295.203125 318.417969 294.519531 C 317.730469 293.835938 317.121094 293.089844 316.582031 292.285156 C 316.042969 291.480469 315.589844 290.628906 315.21875 289.734375 C 314.847656 288.839844 314.566406 287.914062 314.378906 286.964844 C 314.191406 286.015625 314.09375 285.054688 314.09375 284.085938 C 314.09375 283.117188 314.191406 282.160156 314.378906 281.207031 C 314.566406 280.257812 314.847656 279.335938 315.21875 278.441406 C 315.589844 277.546875 316.042969 276.695312 316.582031 275.890625 C 317.121094 275.082031 317.730469 274.339844 318.417969 273.652344 C 319.101562 272.96875 319.847656 272.355469 320.652344 271.820312 C 321.457031 271.28125 322.308594 270.824219 323.203125 270.453125 C 324.097656 270.085938 325.023438 269.804688 325.972656 269.617188 C 326.921875 269.425781 327.882812 269.332031 328.851562 269.332031 C 329.820312 269.332031 330.777344 269.425781 331.730469 269.617188 C 332.679688 269.804688 333.601562 270.085938 334.496094 270.453125 C 335.390625 270.824219 336.242188 271.28125 337.046875 271.820312 C 337.855469 272.355469 338.597656 272.96875 339.285156 273.652344 C 339.96875 274.339844 340.582031 275.082031 341.117188 275.890625 C 341.65625 276.695312 342.113281 277.546875 342.480469 278.441406 C 342.851562 279.335938 343.132812 280.257812 343.320312 281.207031 C 343.511719 282.160156 343.605469 283.117188 343.605469 284.085938 Z M 343.605469 284.085938 " fill-opacity="1" fill-rule="nonzero"/><path fill="#aab2bd" d="M 277.207031 180.800781 L 277.207031 206.917969 C 272.855469 204.410156 267.839844 202.933594 262.453125 202.933594 L 247.699219 202.933594 L 247.699219 180.800781 C 247.699219 140.078125 214.648438 107.027344 173.921875 107.027344 C 153.5625 107.027344 135.117188 115.289062 121.765625 128.644531 C 108.410156 141.996094 100.148438 160.441406 100.148438 180.800781 L 100.148438 202.933594 L 85.394531 202.933594 C 80.007812 202.933594 74.992188 204.410156 70.640625 206.917969 L 70.640625 180.800781 C 70.640625 152.324219 82.222656 126.503906 100.886719 107.765625 C 119.625 89.101562 145.445312 77.519531 173.921875 77.519531 C 199.15625 77.519531 222.320312 86.59375 240.320312 101.714844 C 262.894531 120.675781 277.207031 149.078125 277.207031 180.800781 Z M 277.207031 180.800781 " fill-opacity="1" fill-rule="nonzero"/><path fill="#69d6f4" d="M 188.679688 416.882812 C 188.679688 417.851562 188.585938 418.808594 188.394531 419.757812 C 188.207031 420.710938 187.925781 421.632812 187.554688 422.527344 C 187.183594 423.421875 186.730469 424.273438 186.191406 425.078125 C 185.652344 425.882812 185.042969 426.628906 184.355469 427.3125 C 183.671875 428 182.925781 428.609375 182.121094 429.148438 C 181.316406 429.6875 180.464844 430.140625 179.570312 430.511719 C 178.675781 430.882812 177.753906 431.164062 176.800781 431.351562 C 175.851562 431.542969 174.894531 431.636719 173.921875 431.636719 C 172.953125 431.636719 171.996094 431.542969 171.046875 431.351562 C 170.09375 431.164062 169.171875 430.882812 168.277344 430.511719 C 167.382812 430.140625 166.53125 429.6875 165.726562 429.148438 C 164.921875 428.609375 164.175781 428 163.492188 427.3125 C 162.804688 426.628906 162.195312 425.882812 161.65625 425.078125 C 161.117188 424.273438 160.664062 423.421875 160.292969 422.527344 C 159.921875 421.632812 159.640625 420.710938 159.453125 419.757812 C 159.261719 418.808594 159.167969 417.851562 159.167969 416.882812 C 159.167969 415.914062 159.261719 414.953125 159.453125 414.003906 C 159.640625 413.050781 159.921875 412.128906 160.292969 411.234375 C 160.664062 410.339844 161.117188 409.488281 161.65625 408.683594 C 162.195312 407.878906 162.804688 407.132812 163.492188 406.449219 C 164.175781 405.761719 164.921875 405.152344 165.726562 404.613281 C 166.53125 404.074219 167.382812 403.621094 168.277344 403.25 C 169.171875 402.878906 170.09375 402.597656 171.046875 402.410156 C 171.996094 402.222656 172.953125 402.125 173.921875 402.125 C 174.894531 402.125 175.851562 402.222656 176.800781 402.410156 C 177.753906 402.597656 178.675781 402.878906 179.570312 403.25 C 180.464844 403.621094 181.316406 404.074219 182.121094 404.613281 C 182.925781 405.152344 183.671875 405.761719 184.355469 406.449219 C 185.042969 407.132812 185.652344 407.878906 186.191406 408.683594 C 186.730469 409.488281 187.183594 410.339844 187.554688 411.234375 C 187.925781 412.128906 188.207031 413.050781 188.394531 414.003906 C 188.585938 414.953125 188.679688 415.914062 188.679688 416.882812 Z M 188.679688 416.882812 " fill-opacity="1" fill-rule="nonzero"/><path fill="#aab2bd" d="M 176.949219 295.816406 C 179.679688 298.472656 181.300781 302.160156 181.300781 306.21875 C 181.300781 314.335938 174.660156 320.972656 166.546875 320.972656 L 129.660156 320.972656 L 129.660156 306.21875 C 129.660156 298.105469 136.296875 291.464844 144.414062 291.464844 L 166.546875 291.464844 C 170.605469 291.464844 174.292969 293.085938 176.949219 295.816406 Z M 176.949219 295.816406 " fill-opacity="1" fill-rule="nonzero"/><path fill="#aab2bd" d="M 100.148438 257.824219 C 100.148438 259.226562 100.222656 260.550781 100.296875 261.953125 L 85.394531 261.953125 C 80.082031 261.953125 75.140625 260.550781 70.785156 258.042969 C 61.859375 253.027344 55.882812 243.4375 55.882812 232.445312 C 55.882812 224.328125 59.203125 216.953125 64.515625 211.566406 C 66.359375 209.796875 68.425781 208.171875 70.640625 206.917969 C 74.992188 204.410156 80.007812 202.933594 85.394531 202.933594 L 100.148438 202.933594 Z M 100.148438 257.824219 " fill-opacity="1" fill-rule="nonzero"/><path fill="#000000" d="M 447.8125 74.21875 C 440.6875 68.53125 429.464844 69.152344 423.015625 75.597656 L 407.832031 90.789062 C 404.476562 94.140625 402.625 98.59375 402.625 103.339844 C 402.625 108.082031 404.46875 112.539062 407.832031 115.902344 L 410.960938 119.03125 C 409.847656 124.601562 405.445312 129.003906 399.882812 130.117188 L 396.753906 126.984375 C 390.144531 120.375 378.234375 120.375 371.632812 126.984375 L 356.449219 142.167969 C 352.921875 145.679688 350.984375 150.363281 350.984375 155.34375 C 350.984375 159.546875 352.429688 163.6875 355.0625 166.976562 L 362.785156 176.632812 C 368.667969 183.972656 377.425781 188.179688 386.824219 188.179688 C 391.964844 188.179688 397.0625 186.875 401.5625 184.417969 L 406.277344 181.851562 C 432.070312 167.78125 452.644531 146.453125 465.777344 120.179688 C 467.902344 115.933594 469.023438 111.171875 469.023438 105.972656 C 469.023438 96.582031 464.816406 87.816406 457.46875 81.9375 Z M 452.578125 113.585938 C 440.796875 137.15625 422.335938 156.285156 399.210938 168.902344 L 394.496094 171.46875 C 387.871094 175.085938 379.039062 173.335938 374.3125 167.414062 L 366.585938 157.753906 C 366.046875 157.078125 365.738281 156.214844 365.738281 155.34375 C 365.738281 154.300781 366.144531 153.335938 366.875 152.597656 L 382.058594 137.414062 C 382.617188 136.855469 383.390625 136.539062 384.179688 136.539062 C 384.972656 136.539062 385.753906 136.855469 386.304688 137.414062 L 394.03125 145.148438 L 397.09375 145.148438 C 413.027344 145.148438 425.988281 132.183594 425.988281 116.25 L 425.988281 113.195312 L 418.273438 105.476562 C 417.703125 104.910156 417.378906 104.128906 417.378906 103.339844 C 417.378906 102.550781 417.703125 101.765625 418.265625 101.207031 L 433.441406 86.03125 C 434.785156 84.679688 437.121094 84.554688 438.605469 85.742188 L 448.253906 93.460938 C 452.078125 96.523438 454.265625 101.082031 454.265625 106.421875 C 454.265625 108.894531 453.683594 111.371094 452.578125 113.585938 Z M 452.578125 113.585938 " fill-opacity="1" fill-rule="nonzero"/><g clip-path="url(#a879b8600a)"><path fill="#000000" d="M 476.398438 40.628906 L 255.074219 40.628906 C 242.875 40.628906 232.945312 50.558594 232.945312 62.761719 L 232.945312 87.359375 C 215.84375 76.515625 195.636719 70.140625 173.921875 70.140625 C 112.90625 70.140625 63.261719 119.78125 63.261719 180.800781 L 63.261719 203.125 C 54.363281 209.863281 48.507812 220.441406 48.507812 232.445312 C 48.507812 244.449219 54.355469 255.027344 63.261719 261.761719 L 63.261719 284.085938 C 63.261719 308.5 83.113281 328.351562 107.527344 328.351562 L 137.035156 328.351562 L 137.035156 336.902344 C 114.09375 341.910156 41.128906 367.546875 41.128906 490.65625 L 41.128906 498.035156 L 306.71875 498.035156 L 306.71875 490.65625 C 306.71875 367.546875 233.746094 341.910156 210.8125 336.902344 L 210.8125 325.535156 L 214.308594 323.792969 C 235.960938 312.960938 250.488281 292.695312 254.132812 269.332031 L 262.453125 269.332031 C 282.792969 269.332031 299.339844 252.785156 299.339844 232.445312 C 299.339844 227.191406 298.203125 222.21875 296.210938 217.691406 L 373.117188 217.691406 L 373.117188 230.703125 C 373.117188 239.800781 380.515625 247.199219 389.613281 247.199219 C 395.90625 247.199219 401.554688 243.703125 404.367188 238.082031 L 414.570312 217.691406 L 476.398438 217.691406 C 488.601562 217.691406 498.53125 207.757812 498.53125 195.558594 L 498.53125 62.761719 C 498.53125 50.558594 488.609375 40.628906 476.398438 40.628906 Z M 63.261719 232.445312 C 63.261719 220.242188 73.191406 210.3125 85.394531 210.3125 L 92.773438 210.3125 L 92.765625 254.578125 L 85.394531 254.578125 C 73.191406 254.578125 63.261719 244.648438 63.261719 232.445312 Z M 107.527344 313.597656 C 91.25 313.597656 78.015625 300.363281 78.015625 284.085938 L 78.015625 268.585938 C 80.40625 269.074219 82.871094 269.332031 85.394531 269.332031 L 93.769531 269.332031 C 96.476562 286.507812 105.054688 302.199219 118.253906 313.597656 Z M 107.71875 483.277344 L 55.980469 483.277344 C 58.851562 369.820312 127.800781 353.066406 142.378906 350.792969 L 161.632812 365.238281 L 137.035156 365.238281 C 116.695312 365.238281 100.148438 381.785156 100.148438 402.125 L 100.148438 461.144531 C 100.148438 469.484375 103.035156 477.097656 107.71875 483.277344 Z M 137.035156 313.597656 L 137.035156 306.21875 C 137.035156 302.148438 140.347656 298.839844 144.414062 298.839844 L 166.546875 298.839844 C 170.613281 298.839844 173.921875 302.148438 173.921875 306.21875 C 173.921875 310.292969 170.613281 313.597656 166.546875 313.597656 Z M 210.8125 483.277344 L 137.035156 483.277344 C 127.429688 483.277344 119.316406 477.089844 116.261719 468.523438 L 231.578125 468.523438 C 228.53125 477.089844 220.417969 483.277344 210.8125 483.277344 Z M 232.945312 453.769531 L 114.902344 453.769531 L 114.902344 402.125 C 114.902344 389.925781 124.835938 379.992188 137.035156 379.992188 L 210.8125 379.992188 C 223.011719 379.992188 232.945312 389.925781 232.945312 402.125 Z M 291.875 483.277344 L 240.136719 483.277344 C 244.8125 477.097656 247.699219 469.484375 247.699219 461.144531 L 247.699219 402.125 C 247.699219 381.785156 231.152344 365.238281 210.8125 365.238281 L 186.222656 365.238281 L 205.441406 350.824219 C 219.699219 353.242188 288.96875 370.808594 291.875 483.277344 Z M 207.707031 310.59375 L 204.214844 312.335938 C 199.183594 314.84375 196.054688 319.898438 196.054688 325.535156 L 196.054688 339.417969 L 173.921875 356.015625 L 151.792969 339.417969 L 151.792969 328.351562 L 166.546875 328.351562 C 178.75 328.351562 188.679688 318.421875 188.679688 306.21875 C 188.679688 294.015625 178.75 284.085938 166.546875 284.085938 L 144.414062 284.085938 C 134.972656 284.085938 126.953125 290.054688 123.777344 298.398438 C 113.464844 287.5625 107.511719 273.132812 107.511719 257.800781 L 107.527344 210.3125 L 133.546875 210.3125 C 152.523438 210.3125 169.925781 201.671875 181.300781 187.160156 C 192.671875 201.664062 210.066406 210.304688 229.039062 210.3125 L 240.320312 210.3125 L 240.328125 257.800781 C 240.328125 280.300781 227.832031 300.53125 207.707031 310.59375 Z M 237.714844 195.558594 L 229.046875 195.558594 C 211.511719 195.550781 195.738281 185.8125 187.898438 170.132812 L 181.300781 156.945312 L 174.699219 170.132812 C 167.3125 184.902344 152.867188 194.296875 136.5625 195.351562 C 144.015625 188.0625 149.445312 178.515625 151.644531 167.515625 L 137.183594 164.59375 L 137.035156 165.308594 C 134.027344 180.367188 122.140625 191.808594 107.527344 194.761719 L 107.527344 180.800781 C 107.527344 144.1875 137.316406 114.40625 173.921875 114.40625 C 207.269531 114.40625 234.882812 139.140625 239.546875 171.21875 C 230.566406 161.316406 218.617188 154.175781 204.878906 151.433594 L 201.980469 165.898438 C 218.394531 169.183594 231.601562 180.460938 237.714844 195.558594 Z M 173.921875 99.648438 C 129.179688 99.648438 92.773438 136.058594 92.773438 180.800781 L 92.773438 195.558594 L 85.394531 195.558594 C 82.871094 195.558594 80.398438 195.816406 78.015625 196.300781 L 78.015625 180.800781 C 78.015625 127.921875 121.042969 84.894531 173.921875 84.894531 C 226.804688 84.894531 269.832031 127.921875 269.832031 180.800781 L 269.832031 196.300781 C 267.449219 195.816406 264.984375 195.558594 262.453125 195.558594 L 255.074219 195.558594 L 255.074219 180.800781 C 255.074219 136.058594 218.675781 99.648438 173.921875 99.648438 Z M 262.453125 254.578125 L 255.074219 254.578125 L 255.074219 210.3125 L 262.453125 210.3125 C 274.65625 210.3125 284.585938 220.242188 284.585938 232.445312 C 284.585938 244.648438 274.664062 254.578125 262.453125 254.578125 Z M 483.777344 195.558594 C 483.777344 199.628906 480.464844 202.933594 476.398438 202.933594 L 405.445312 202.933594 L 391.167969 231.476562 C 390.453125 232.929688 387.871094 232.320312 387.871094 230.703125 L 387.871094 202.933594 L 284.585938 202.933594 L 284.585938 180.800781 C 284.585938 148.136719 270.28125 118.824219 247.699219 98.550781 L 247.699219 62.761719 C 247.699219 58.691406 251.011719 55.386719 255.074219 55.386719 L 476.398438 55.386719 C 480.464844 55.386719 483.777344 58.691406 483.777344 62.761719 Z M 483.777344 195.558594 " fill-opacity="1" fill-rule="nonzero"/></g><path fill="#000000" d="M 218.1875 225.066406 C 218.1875 225.550781 218.140625 226.03125 218.046875 226.507812 C 217.953125 226.980469 217.8125 227.441406 217.628906 227.890625 C 217.441406 228.335938 217.214844 228.761719 216.945312 229.164062 C 216.675781 229.570312 216.371094 229.941406 216.027344 230.285156 C 215.683594 230.625 215.3125 230.933594 214.910156 231.199219 C 214.507812 231.46875 214.082031 231.699219 213.632812 231.882812 C 213.1875 232.066406 212.726562 232.207031 212.25 232.300781 C 211.773438 232.398438 211.296875 232.445312 210.8125 232.445312 C 210.328125 232.445312 209.847656 232.398438 209.371094 232.300781 C 208.898438 232.207031 208.433594 232.066406 207.988281 231.882812 C 207.539062 231.699219 207.113281 231.46875 206.710938 231.199219 C 206.308594 230.933594 205.9375 230.625 205.59375 230.285156 C 205.25 229.941406 204.945312 229.570312 204.675781 229.164062 C 204.40625 228.761719 204.179688 228.335938 203.996094 227.890625 C 203.808594 227.441406 203.667969 226.980469 203.574219 226.507812 C 203.480469 226.03125 203.433594 225.550781 203.433594 225.066406 C 203.433594 224.582031 203.480469 224.101562 203.574219 223.628906 C 203.667969 223.152344 203.808594 222.691406 203.996094 222.242188 C 204.179688 221.796875 204.40625 221.371094 204.675781 220.96875 C 204.945312 220.566406 205.25 220.191406 205.59375 219.851562 C 205.9375 219.507812 206.308594 219.203125 206.710938 218.933594 C 207.113281 218.664062 207.539062 218.4375 207.988281 218.25 C 208.433594 218.066406 208.898438 217.925781 209.371094 217.832031 C 209.847656 217.738281 210.328125 217.691406 210.8125 217.691406 C 211.296875 217.691406 211.773438 217.738281 212.25 217.832031 C 212.726562 217.925781 213.1875 218.066406 213.632812 218.25 C 214.082031 218.4375 214.507812 218.664062 214.910156 218.933594 C 215.3125 219.203125 215.683594 219.507812 216.027344 219.851562 C 216.371094 220.191406 216.675781 220.566406 216.945312 220.96875 C 217.214844 221.371094 217.441406 221.796875 217.628906 222.242188 C 217.8125 222.691406 217.953125 223.152344 218.046875 223.628906 C 218.140625 224.101562 218.1875 224.582031 218.1875 225.066406 Z M 218.1875 225.066406 " fill-opacity="1" fill-rule="nonzero"/><path fill="#000000" d="M 144.414062 225.066406 C 144.414062 225.550781 144.367188 226.03125 144.273438 226.507812 C 144.175781 226.980469 144.039062 227.441406 143.851562 227.890625 C 143.667969 228.335938 143.441406 228.761719 143.171875 229.164062 C 142.902344 229.570312 142.59375 229.941406 142.253906 230.285156 C 141.910156 230.625 141.539062 230.933594 141.136719 231.199219 C 140.730469 231.46875 140.308594 231.699219 139.859375 231.882812 C 139.414062 232.066406 138.949219 232.207031 138.476562 232.300781 C 138 232.398438 137.519531 232.445312 137.035156 232.445312 C 136.550781 232.445312 136.074219 232.398438 135.597656 232.300781 C 135.121094 232.207031 134.660156 232.066406 134.214844 231.882812 C 133.765625 231.699219 133.339844 231.46875 132.9375 231.199219 C 132.535156 230.933594 132.164062 230.625 131.820312 230.285156 C 131.476562 229.941406 131.171875 229.570312 130.902344 229.164062 C 130.632812 228.761719 130.40625 228.335938 130.21875 227.890625 C 130.035156 227.441406 129.894531 226.980469 129.800781 226.507812 C 129.707031 226.03125 129.660156 225.550781 129.660156 225.066406 C 129.660156 224.582031 129.707031 224.101562 129.800781 223.628906 C 129.894531 223.152344 130.035156 222.691406 130.21875 222.242188 C 130.40625 221.796875 130.632812 221.371094 130.902344 220.96875 C 131.171875 220.566406 131.476562 220.191406 131.820312 219.851562 C 132.164062 219.507812 132.535156 219.203125 132.9375 218.933594 C 133.339844 218.664062 133.765625 218.4375 134.214844 218.25 C 134.660156 218.066406 135.121094 217.925781 135.597656 217.832031 C 136.074219 217.738281 136.550781 217.691406 137.035156 217.691406 C 137.519531 217.691406 138 217.738281 138.476562 217.832031 C 138.949219 217.925781 139.414062 218.066406 139.859375 218.25 C 140.308594 218.4375 140.730469 218.664062 141.136719 218.933594 C 141.539062 219.203125 141.910156 219.507812 142.253906 219.851562 C 142.59375 220.191406 142.902344 220.566406 143.171875 220.96875 C 143.441406 221.371094 143.667969 221.796875 143.851562 222.242188 C 144.039062 222.691406 144.175781 223.152344 144.273438 223.628906 C 144.367188 224.101562 144.414062 224.582031 144.414062 225.066406 Z M 144.414062 225.066406 " fill-opacity="1" fill-rule="nonzero"/><path fill="#000000" d="M 181.300781 238.082031 L 181.300781 225.066406 L 166.546875 225.066406 L 166.546875 239.820312 C 166.546875 240.964844 166.8125 242.101562 167.320312 243.121094 L 171.402344 251.273438 L 163.25 255.351562 L 169.851562 268.550781 L 178.003906 264.46875 C 181.53125 262.707031 184.15625 259.683594 185.402344 255.941406 C 186.648438 252.203125 186.363281 248.195312 184.605469 244.675781 Z M 181.300781 238.082031 " fill-opacity="1" fill-rule="nonzero"/><path fill="#000000" d="M 173.921875 394.75 C 161.722656 394.75 151.792969 404.679688 151.792969 416.882812 C 151.792969 429.082031 161.722656 439.011719 173.921875 439.011719 C 186.125 439.011719 196.054688 429.082031 196.054688 416.882812 C 196.054688 404.679688 186.132812 394.75 173.921875 394.75 Z M 173.921875 424.257812 C 169.859375 424.257812 166.546875 420.953125 166.546875 416.882812 C 166.546875 412.808594 169.859375 409.503906 173.921875 409.503906 C 177.988281 409.503906 181.300781 412.808594 181.300781 416.882812 C 181.300781 420.953125 177.996094 424.257812 173.921875 424.257812 Z M 173.921875 424.257812 " fill-opacity="1" fill-rule="nonzero"/><path fill="#000000" d="M 350.984375 99.648438 C 334.707031 99.648438 321.472656 112.886719 321.472656 129.160156 L 336.226562 129.160156 C 336.226562 121.023438 342.84375 114.40625 350.984375 114.40625 Z M 350.984375 99.648438 " fill-opacity="1" fill-rule="nonzero"/><path fill="#000000" d="M 350.984375 70.140625 C 318.441406 70.140625 291.964844 96.617188 291.964844 129.160156 L 306.71875 129.160156 C 306.71875 104.746094 326.570312 84.894531 350.984375 84.894531 Z M 350.984375 70.140625 " fill-opacity="1" fill-rule="nonzero"/><path fill="#000000" d="M 387.871094 261.953125 C 375.667969 261.953125 365.738281 271.882812 365.738281 284.085938 C 365.738281 296.289062 375.667969 306.21875 387.871094 306.21875 C 400.074219 306.21875 410.003906 296.289062 410.003906 284.085938 C 410.003906 271.882812 400.078125 261.953125 387.871094 261.953125 Z M 387.871094 291.464844 C 383.804688 291.464844 380.492188 288.160156 380.492188 284.085938 C 380.492188 280.015625 383.804688 276.710938 387.871094 276.710938 C 391.933594 276.710938 395.246094 280.015625 395.246094 284.085938 C 395.246094 288.160156 391.941406 291.464844 387.871094 291.464844 Z M 387.871094 291.464844 " fill-opacity="1" fill-rule="nonzero"/><path fill="#000000" d="M 328.851562 261.953125 C 316.648438 261.953125 306.71875 271.882812 306.71875 284.085938 C 306.71875 296.289062 316.648438 306.21875 328.851562 306.21875 C 341.054688 306.21875 350.984375 296.289062 350.984375 284.085938 C 350.984375 271.882812 341.058594 261.953125 328.851562 261.953125 Z M 328.851562 291.464844 C 324.785156 291.464844 321.472656 288.160156 321.472656 284.085938 C 321.472656 280.015625 324.785156 276.710938 328.851562 276.710938 C 332.914062 276.710938 336.226562 280.015625 336.226562 284.085938 C 336.226562 288.160156 332.921875 291.464844 328.851562 291.464844 Z M 328.851562 291.464844 " fill-opacity="1" fill-rule="nonzero"/><path fill="#000000" d="M 446.890625 261.953125 C 434.6875 261.953125 424.757812 271.882812 424.757812 284.085938 C 424.757812 296.289062 434.6875 306.21875 446.890625 306.21875 C 459.09375 306.21875 469.023438 296.289062 469.023438 284.085938 C 469.023438 271.882812 459.101562 261.953125 446.890625 261.953125 Z M 446.890625 291.464844 C 442.824219 291.464844 439.511719 288.160156 439.511719 284.085938 C 439.511719 280.015625 442.824219 276.710938 446.890625 276.710938 C 450.953125 276.710938 454.265625 280.015625 454.265625 284.085938 C 454.265625 288.160156 450.960938 291.464844 446.890625 291.464844 Z M 446.890625 291.464844 " fill-opacity="1" fill-rule="nonzero"/></svg>